<?xml version="1.0" standalone="no"?>
<!DOCTYPE svg PUBLIC "-//W3C//DTD SVG 1.1//EN" "http://www.w3.org/Graphics/SVG/1.1/DTD/svg11.dtd" >
<svg>
<metadata>
Created by FontForge 20090622 at Tue Oct 15 15:25:30 2019
 By deploy user
[c] Copyright 2001, 2002, The Font Bureau, Inc. Designed by Cyrus Highsmith. All rights reserved.
</metadata>
<defs>
<font id="Stainless-Light" horiz-adv-x="242" >
  <font-face 
    font-family="Stainless-Light"
    font-weight="550"
    font-stretch="normal"
    units-per-em="1000"
    panose-1="2 0 6 3 3 0 0 2 0 4"
    ascent="795"
    descent="-205"
    x-height="465"
    cap-height="726"
    bbox="-79 -205 1203 946"
    underline-thickness="20"
    underline-position="-113"
    unicode-range="U+0020-U+FB02"
  />
<missing-glyph horiz-adv-x="1000" 
 />
    <glyph glyph-name="fi" unicode="fi" horiz-adv-x="577" 
d="M109 399h-83v66h83v101q0 39 11.5 67.5t44 50t91.5 36.5t154 27l8 -69q-81 -11 -128 -21.5t-71 -23.5t-30.5 -30t-6.5 -41v-97h324v-465h-73v399h-251v-399h-73v399z" />
    <glyph glyph-name="fl" unicode="fl" horiz-adv-x="577" 
d="M433 746h73v-746h-73v746zM109 399h-83v66h83v112q0 38 7.5 65t28 46.5t56 33.5t91.5 26l14 -66q-41 -9 -65.5 -17.5t-37.5 -20.5t-17 -29t-4 -42v-108h125v-66h-125v-399h-73v399z" />
    <glyph glyph-name=".notdef" horiz-adv-x="1000" 
 />
    <glyph glyph-name="NUL" horiz-adv-x="0" 
 />
    <glyph glyph-name="nonmarkingreturn" horiz-adv-x="246" 
 />
    <glyph glyph-name="space" unicode=" " horiz-adv-x="246" 
 />
    <glyph glyph-name="exclam" unicode="!" horiz-adv-x="283" 
d="M86 110h111v-110h-111v110zM96 726h94l-21 -525h-52z" />
    <glyph glyph-name="quotedbl" unicode="&#x22;" horiz-adv-x="406" 
d="M63 726h104l-24 -235h-57zM239 726h105l-24 -235h-57z" />
    <glyph glyph-name="numbersign" unicode="#" horiz-adv-x="553" 
d="M336 291l24 144h-144l-24 -144h144zM120 229h-90v65h100l24 138h-124v65h134l42 249h65l-42 -249h139l41 249h65l-42 -249h91v-65h-102l-23 -138h125v-65h-136l-42 -249h-63l41 249h-139l-41 -249h-65z" />
    <glyph glyph-name="dollar" unicode="$" horiz-adv-x="579" 
d="M320 64q39 2 65 9.5t42 22.5t22.5 39.5t6.5 60.5q0 30 -6 50t-21 34.5t-41.5 25.5t-67.5 21v-263zM259 665q-37 -1 -62 -8t-40 -20.5t-21 -35t-6 -52.5q0 -29 4.5 -49t18 -34.5t39 -26t67.5 -22.5v248zM257 -5q-85 2 -135 9.5t-68 12.5l13 67q9 -2 28.5 -5t45.5 -6
t56.5 -6t61.5 -4v280q-60 16 -100 31.5t-63.5 38t-33 54.5t-9.5 80q0 39 9 72t31.5 57.5t62.5 39t101 17.5v107h65v-107q62 -2 107 -8.5t71 -13.5l-14 -64q-8 2 -25 4.5t-39 5t-48.5 5t-53.5 3.5v-263q51 -12 91 -26.5t67 -37.5t41.5 -56.5t14.5 -83.5q0 -48 -11 -84
t-35.5 -61t-65 -39.5t-100.5 -17.5v-123h-65v122z" />
    <glyph glyph-name="percent" unicode="%" horiz-adv-x="839" 
d="M657 51q23 0 40.5 7t29.5 23t18 42.5t6 65.5v52q0 79 -24.5 109.5t-71.5 30.5q-23 0 -40.5 -7t-29.5 -23t-18 -42.5t-6 -65.5v-52q0 -79 25 -109.5t71 -30.5zM655 -11q-38 0 -68.5 10t-51.5 35.5t-32.5 69.5t-11.5 111q0 68 11.5 112t33.5 69.5t52.5 36t68.5 10.5
t68.5 -10t52 -35.5t33 -69t11.5 -111.5q0 -67 -11.5 -111.5t-33.5 -70t-53 -36t-69 -10.5zM514 726h64l-252 -726h-64zM184 347q23 0 40.5 7t29.5 23t18 42.5t6 65.5v52q0 79 -24.5 109.5t-71.5 30.5q-23 0 -40.5 -7t-29.5 -23t-18 -42.5t-6 -65.5v-52q0 -79 25 -109.5
t71 -30.5zM182 285q-38 0 -68.5 10t-51.5 35.5t-32.5 69.5t-11.5 111q0 68 11.5 112t33.5 69.5t52.5 36t68.5 10.5t68.5 -10t52 -35.5t33 -69t11.5 -111.5q0 -67 -11.5 -111.5t-33.5 -70t-53 -36t-69 -10.5z" />
    <glyph glyph-name="ampersand" unicode="&#x26;" horiz-adv-x="682" 
d="M264 363q-44 -9 -73 -20t-46 -27.5t-24 -41t-7 -60.5q0 -51 11 -82t35 -47.5t61 -22t89 -5.5q24 0 41.5 3.5t32.5 14t29 29t30 49.5zM521 165l6 -7l16 -18.5l22.5 -26.5l25.5 -30l70 -83h-88l-85 100q-18 -32 -35 -53t-37.5 -34t-44.5 -18t-55 -5q-67 0 -118.5 7.5
t-85.5 31.5t-51.5 68.5t-17.5 118.5q0 48 10.5 81t32.5 55.5t56 37t80 24.5q-22 27 -37 49t-24.5 42t-14 39.5t-4.5 40.5q0 84 46 119t144 35q30 0 59 -3t54 -7t45 -8.5t30 -7.5l-14 -65q-12 3 -32 7t-44 7t-49.5 5.5t-48.5 2.5q-38 0 -61 -5t-35 -15t-16 -26t-4 -39
q0 -20 6 -39t21.5 -44t43 -58.5l69.5 -83.5l60 -70l41 -48t18 -23l87 188h72z" />
    <glyph glyph-name="quotesingle" unicode="'" horiz-adv-x="229" 
d="M63 726h104l-24 -235h-57z" />
    <glyph glyph-name="parenleft" unicode="(" horiz-adv-x="338" 
d="M313 -120q-51 1 -91 6.5t-70 21.5t-51 44.5t-34.5 76.5t-19.5 117.5t-6 166.5t6 166.5t19 117.5t34.5 76.5t51.5 44.5t70 21.5t91 6.5v-67q-38 0 -68 -3t-52.5 -15t-39 -35.5t-26.5 -64t-14.5 -101.5t-4.5 -147q0 -129 10.5 -202t35 -109.5t63.5 -45.5t96 -9v-67z" />
    <glyph glyph-name="parenright" unicode=")" horiz-adv-x="338" 
d="M27 -53q57 0 96 9t63 45.5t34.5 109.5t10.5 202q0 86 -4.5 147t-15 101.5t-26.5 64t-39 35.5t-52.5 15t-67.5 3v67q51 -1 91 -6.5t70 -21.5t51.5 -44.5t34.5 -76.5t19 -117.5t6 -166.5t-6 -166.5t-19.5 -117.5t-34.5 -76.5t-51 -44.5t-70 -21.5t-90 -6.5v67z" />
    <glyph glyph-name="asterisk" unicode="*" horiz-adv-x="389" 
d="M168 505l-113 -73l-29 54l117 69l-115 66l29 54l112 -73l-3 137h59l-4 -139l113 73l30 -54l-117 -66l116 -66l-30 -54l-113 73l3 -139h-59z" />
    <glyph glyph-name="plus" unicode="+" horiz-adv-x="507" 
d="M219 300h-159v65h159v162h70v-162h158v-65h-158v-162h-70v162z" />
    <glyph glyph-name="comma" unicode="," 
d="M15 -130l59 246h127l-147 -270z" />
    <glyph glyph-name="hyphen" unicode="-" horiz-adv-x="392" 
d="M60 304h272v-72h-272v72z" />
    <glyph glyph-name="hyphen" unicode="&#xad;" horiz-adv-x="392" 
d="M60 304h272v-72h-272v72z" />
    <glyph glyph-name="period" unicode="." 
d="M63 116h117v-116h-117v116z" />
    <glyph glyph-name="slash" unicode="/" horiz-adv-x="306" 
d="M245 726h66l-251 -726h-65z" />
    <glyph glyph-name="zero" unicode="0" horiz-adv-x="615" 
d="M309 58q49 0 84.5 13t59 44t34.5 82t11 126v80q0 75 -11.5 126.5t-35 82.5t-59.5 44.5t-85 13.5t-84.5 -13t-59 -44t-34.5 -82t-11 -126v-80q0 -75 11.5 -126.5t35 -82.5t59.5 -44.5t85 -13.5zM307 -11q-68 0 -118 17t-83 60t-49 115t-16 182t16.5 182.5t49.5 115.5
t83.5 60.5t118.5 17.5t118 -17t83 -60t49 -115t16 -182t-16.5 -182.5t-49.5 -115.5t-83.5 -60.5t-118.5 -17.5z" />
    <glyph glyph-name="one" unicode="1" horiz-adv-x="316" 
d="M166 658h-139v68h212v-726h-73v658z" />
    <glyph glyph-name="two" unicode="2" horiz-adv-x="547" 
d="M36 61l190 195l73 74.5t50 53.5t31.5 40.5t17.5 35.5t7.5 39.5t1.5 51.5q0 32 -7.5 55t-26 37t-50.5 20.5t-80 6.5q-26 0 -52.5 -2t-51.5 -5.5t-47 -7.5t-39 -8l-12 64q17 5 41 10t51 9t56 6.5t56 2.5q65 0 110 -11t73.5 -33.5t41.5 -58t13 -83.5q0 -56 -8.5 -92.5
t-30.5 -69.5t-60 -71.5l-98 -99.5l-149 -152h372v-68h-473v61z" />
    <glyph glyph-name="three" unicode="3" horiz-adv-x="537" 
d="M51 55q136 7 216 20t116 36q26 16 34.5 50.5t8.5 74.5t-9 72.5t-34 48.5q-18 11 -41.5 18.5t-48.5 12.5t-50 7.5t-46 3.5v61l182 198h-350v68h436v-68l-186 -201q14 -1 31.5 -4.5t37 -8.5t38 -11.5t33.5 -15.5q45 -26 64 -69.5t19 -109.5t-17.5 -112.5t-62.5 -72.5
q-48 -27 -140 -44t-226 -20z" />
    <glyph glyph-name="four" unicode="4" horiz-adv-x="578" 
d="M389 178h-369v78l284 475h78l-290 -485h297v220h74v-220h89v-68h-89v-178h-74v178z" />
    <glyph glyph-name="five" unicode="5" horiz-adv-x="536" 
d="M50 55q136 7 217 18t116 34q26 16 34.5 52.5t8.5 76.5t-8.5 75t-34.5 51q-18 11 -44 20.5t-65.5 16.5t-96 11.5t-134.5 7.5l10 308h410v-68h-341l-6 -178q62 -2 110.5 -7.5t85.5 -13.5t64 -17.5t46 -20.5q45 -26 62.5 -71.5t17.5 -111.5t-17.5 -114.5t-62.5 -74.5
q-48 -27 -140.5 -42t-226.5 -18z" />
    <glyph glyph-name="six" unicode="6" horiz-adv-x="581" 
d="M297 58q55 0 89.5 7.5t54 28.5t27 57t7.5 93q0 38 -8 64.5t-25.5 43t-46 24t-69.5 7.5q-60 0 -116 -11t-92 -20v-108q0 -56 9.5 -92t31 -57t55.5 -29t83 -8zM295 -11q-81 0 -130.5 17.5t-76.5 51t-36.5 82t-9.5 109.5v159q0 85 11 137t44 87q41 44 130 68.5t238 38.5
l8 -65q-72 -8 -125 -16.5t-91 -18.5t-63 -22.5t-41 -27.5q-15 -14 -22 -34t-10 -42.5t-3 -46.5v-45l45.5 11t53.5 10.5t56.5 7.5t55.5 3q58 0 100 -11.5t69 -36.5t40 -64.5t13 -96.5q0 -58 -8 -105t-35 -80.5t-77.5 -51.5t-135.5 -18z" />
    <glyph glyph-name="seven" unicode="7" horiz-adv-x="528" 
d="M431 658h-412v68h490v-65l-279 -661h-82z" />
    <glyph glyph-name="eight" unicode="8" horiz-adv-x="605" 
d="M300 59q45 0 81.5 5t62 17.5t39 34t13.5 54.5q0 45 -8 72t-31 46.5t-65 34.5t-111 36l-10 3q-57 -22 -89 -37.5t-47.5 -34.5t-19.5 -46t-4 -74q0 -33 12.5 -54.5t37 -34t59.5 -17.5t80 -5zM329 414q51 21 78.5 34.5t40.5 29t15 37.5t2 58q0 57 -43.5 77t-121.5 20
q-76 0 -117 -20t-41 -77q0 -36 7.5 -58.5t27 -38t53 -28t84.5 -29.5zM300 -10q-63 0 -112.5 8t-83.5 28.5t-51.5 55t-17.5 88.5t6 87t23 55.5t49.5 39t84.5 38.5q-40 17 -66 34t-40.5 37.5t-20 47.5t-5.5 64q0 48 18 80t50 51t75 27t92 8q51 0 95 -8t76 -27t50.5 -51
t18.5 -80q0 -43 -5 -71.5t-20 -48t-41.5 -34.5t-69.5 -33q50 -19 82 -36t51 -40t26.5 -56t7.5 -84q0 -54 -19 -88.5t-54.5 -55t-85.5 -28.5t-113 -8z" />
    <glyph glyph-name="nine" unicode="9" horiz-adv-x="581" 
d="M255 345q60 0 116 11t92 20v108q0 56 -9.5 92t-31 57t-55.5 29t-83 8q-55 0 -89.5 -7.5t-54 -28.5t-27 -57t-7.5 -93q0 -76 33.5 -107.5t115.5 -31.5zM108 54q72 8 125 16.5t91 18.5t63 22.5t41 27.5q15 14 22 34t10 42.5t3 46.5v45l-45.5 -11t-53 -10.5t-56.5 -7.5
t-56 -3q-115 0 -168.5 48t-53.5 161q0 58 8 105t35 80.5t77.5 51.5t135.5 18q81 0 130.5 -17.5t76.5 -51t36.5 -81.5t9.5 -110v-159q0 -85 -11 -137t-44 -87q-41 -43 -130 -68t-238 -39z" />
    <glyph glyph-name="colon" unicode=":" 
d="M63 116h117v-116h-117v116zM63 465h117v-115h-117v115z" />
    <glyph glyph-name="semicolon" unicode=";" 
d="M15 -130l59 246h127l-147 -270zM63 465h117v-115h-117v115z" />
    <glyph glyph-name="semicolon" unicode="&#x37e;" 
d="M15 -130l59 246h127l-147 -270zM63 465h117v-115h-117v115z" />
    <glyph glyph-name="less" unicode="&#x3c;" horiz-adv-x="368" 
d="M32 324l192 203h87l-193 -203l193 -203h-87z" />
    <glyph glyph-name="equal" unicode="=" horiz-adv-x="460" 
d="M60 276h340v-64h-340v64zM60 452h340v-64h-340v64z" />
    <glyph glyph-name="greater" unicode="&#x3e;" horiz-adv-x="368" 
d="M250 324l-193 203h87l192 -203l-192 -203h-87z" />
    <glyph glyph-name="question" unicode="?" horiz-adv-x="515" 
d="M171 110h111v-110h-111v110zM192 358q75 28 120.5 48.5t70.5 41.5t33.5 46.5t8.5 62.5q0 32 -9 53.5t-30 34.5t-55 19t-84 6q-52 0 -97.5 -5t-103.5 -17l-14 63q16 5 40 10t52.5 9t60 6.5t62.5 2.5q68 0 116 -9.5t78 -31t43.5 -56t13.5 -83.5q0 -45 -9.5 -78.5
t-35.5 -60.5t-71.5 -51.5t-116.5 -52.5v-115h-73v157z" />
    <glyph glyph-name="at" unicode="@" horiz-adv-x="957" 
d="M394 59q20 0 42.5 5.5t45 15t43.5 21.5t37 25l45 243q-13 5 -33.5 12t-44.5 13t-48.5 10t-45.5 4q-18 0 -33 -6.5t-27.5 -24.5t-23 -49t-19.5 -81q-10 -54 -12.5 -90.5t4 -58t24 -30.5t46.5 -9zM479 -187q-115 0 -196 18.5t-132.5 67.5t-75 133t-23.5 214q0 131 24 215
t75.5 133t132.5 68t195 19t195.5 -19.5t133 -66t75.5 -122t24 -188.5q0 -93 -18.5 -149t-59.5 -86t-105.5 -40t-157.5 -10l-15 54q-39 -25 -84.5 -43.5t-95.5 -18.5q-30 0 -57 8.5t-44.5 35.5t-22 77t10.5 133q15 82 34 128t40 68.5t44 27.5t45 5q25 0 54.5 -5t58 -12
t52.5 -14.5t37 -12.5l25 34h49l-74 -399q63 0 105 8t67 32t35.5 67t10.5 113q0 101 -21 165t-65 100.5t-112.5 50t-163.5 13.5t-163.5 -12.5t-112.5 -51.5t-65 -111.5t-21 -192.5t21 -192.5t65 -111.5t112.5 -51.5t163.5 -12.5h98v-66h-98z" />
    <glyph glyph-name="A" unicode="A" horiz-adv-x="661" 
d="M329 624l-145 -381h290zM91 0h-72l279 731h65l279 -731h-75l-67 176h-342z" />
    <glyph glyph-name="B" unicode="B" horiz-adv-x="629" 
d="M361 67q29 0 56 5.5t47.5 20t33 41t12.5 68.5t-12.5 68.5t-33 41t-47.5 20t-56 5.5h-213v-270h213zM342 402q29 0 56 4.5t47.5 18t33 38.5t12.5 67t-12.5 67.5t-33 39t-47.5 18t-56 4.5h-194v-257h194zM76 726h266q53 0 94 -8.5t69.5 -31t43.5 -60t15 -96.5
q0 -61 -24 -101t-78 -51q60 -9 90.5 -54.5t30.5 -121.5q0 -109 -58.5 -155.5t-163.5 -46.5h-285v726z" />
    <glyph glyph-name="C" unicode="C" horiz-adv-x="580" 
d="M336 -11q-59 0 -112.5 11t-94 50t-64 113t-23.5 200t24 200.5t64.5 113.5t94 50.5t112.5 11.5q72 0 125 -9t75 -17l-16 -65q-12 3 -31.5 6.5t-44 7t-53 6t-57.5 2.5q-53 0 -93.5 -11.5t-67.5 -43t-40.5 -86t-13.5 -140.5v-48q0 -84 14 -138.5t41.5 -87t68.5 -45t94 -12.5
q29 0 58.5 3t55 6.5t44.5 7.5t26 6l16 -65q-34 -11 -85.5 -19t-116.5 -8z" />
    <glyph glyph-name="D" unicode="D" horiz-adv-x="651" 
d="M312 67q49 0 89.5 11.5t69 41.5t44.5 83t16 136v48q0 83 -16 136t-44.5 83t-69 41.5t-89.5 11.5h-163v-592h163zM76 726h237q69 0 123.5 -15t93 -55.5t59 -111t20.5 -181.5t-20.5 -181.5t-59 -111t-93 -55.5t-123.5 -15h-237v726z" />
    <glyph glyph-name="E" unicode="E" horiz-adv-x="544" 
d="M76 726h426v-68h-353v-240h270v-68h-270v-282h353v-68h-426v726z" />
    <glyph glyph-name="F" unicode="F" horiz-adv-x="525" 
d="M76 726h427v-68h-354v-290h262v-68h-262v-300h-73v726z" />
    <glyph glyph-name="G" unicode="G" horiz-adv-x="626" 
d="M336 -11q-59 0 -112.5 11t-94 50t-64 113t-23.5 200t24 200.5t65.5 113.5t97 50.5t118.5 11.5q72 0 127.5 -9t77.5 -17l-16 -65q-12 3 -32 6.5t-45.5 7t-55 6t-58.5 2.5q-57 0 -99.5 -11.5t-70.5 -43t-41.5 -86t-13.5 -140.5v-48q0 -84 14 -138.5t41.5 -87t68.5 -45
t94 -12.5q64 0 99.5 6t57.5 11v264h72v-317q-13 -4 -35.5 -9.5t-52.5 -11t-66 -9t-77 -3.5z" />
    <glyph glyph-name="H" unicode="H" horiz-adv-x="705" 
d="M76 726h73v-303h407v303h73v-726h-73v355h-407v-355h-73v726z" />
    <glyph glyph-name="I" unicode="I" 
d="M85 726h74v-726h-74v726z" />
    <glyph glyph-name="J" unicode="J" horiz-adv-x="484" 
d="M202 -5q-42 0 -91 5.5t-89 14.5l11 67q45 -7 90.5 -12.5t78.5 -5.5q51 0 79.5 11t43 35t18 62.5t3.5 92.5v461h73v-471q0 -70 -9.5 -119.5t-33.5 -80.5t-66 -45.5t-108 -14.5z" />
    <glyph glyph-name="K" unicode="K" horiz-adv-x="639" 
d="M505 726h89l-277 -275l287 -451h-86l-127 199l-46.5 73.5l-40.5 63.5l-29 45l-11 17l-11.5 -11l-29 -28.5l-37.5 -37.5l-37 -37v-284h-73v726h73v-353z" />
    <glyph glyph-name="L" unicode="L" horiz-adv-x="558" 
d="M66 726h73v-658h397v-68h-470v726z" />
    <glyph glyph-name="M" unicode="M" horiz-adv-x="843" 
d="M388 0l-243 546v-546h-69v726h64l281 -629l282 629h64v-726h-73v546l-243 -546h-63z" />
    <glyph glyph-name="N" unicode="N" horiz-adv-x="689" 
d="M76 726h69l398 -596v596h70v-726h-66l-401 600v-600h-70v726z" />
    <glyph glyph-name="O" unicode="O" horiz-adv-x="694" 
d="M348 58q50 0 91.5 11.5t71.5 42t46.5 85.5t16.5 142v48q0 87 -17 142t-47.5 86.5t-72 43t-91.5 11.5q-49 0 -90.5 -11.5t-71.5 -42t-47 -85.5t-17 -142v-48q0 -87 17 -142t47.5 -86.5t72.5 -43t91 -11.5zM346 -11q-63 0 -118.5 15t-97 56.5t-65 114.5t-23.5 188
q0 116 24 189t65.5 114.5t97.5 57t119 15.5t118.5 -15t97 -56.5t65 -114t23.5 -188.5q0 -115 -24 -188.5t-65.5 -115t-97.5 -57t-119 -15.5z" />
    <glyph glyph-name="P" unicode="P" horiz-adv-x="615" 
d="M338 337q38 0 70 5t54.5 21.5t35 48t12.5 85.5t-13 86t-36 49t-55 22t-70 5h-187v-322h189zM76 726h262q125 0 185 -52.5t60 -174.5t-61 -175.5t-186 -53.5h-187v-270h-73v726z" />
    <glyph glyph-name="Q" unicode="Q" horiz-adv-x="694" 
d="M322 215h82l71 -131q46 26 72.5 85.5t26.5 169.5v48q0 87 -17 142t-47.5 86.5t-72 43t-91.5 11.5q-49 0 -90.5 -11.5t-71.5 -42t-47 -85.5t-17 -142v-48q0 -87 17 -142t47.5 -86.5t72.5 -43t91 -11.5q15 0 29.5 1t28.5 3zM598 -141h-80l-78 141q-22 -5 -45.5 -7t-48.5 -2
q-63 0 -118.5 15t-97 55.5t-65 113.5t-23.5 188q0 116 24 189t65.5 114.5t97.5 57t119 15.5t118.5 -15t97 -56.5t65 -114t23.5 -188.5q0 -75 -10.5 -131t-29 -97.5t-45 -69t-59.5 -44.5z" />
    <glyph glyph-name="R" unicode="R" horiz-adv-x="641" 
d="M328 346q38 0 70 4.5t54.5 20t35 46.5t12.5 85t-13 85t-36 47t-55 20.5t-70 4.5h-177v-313h179zM604 0h-86l-178 280h-191v-280h-73v726h252q63 0 109 -12t76 -38t45 -68.5t15 -103.5q0 -99 -39.5 -149.5t-113.5 -65.5z" />
    <glyph glyph-name="S" unicode="S" horiz-adv-x="583" 
d="M274 -5q-31 0 -65 3t-64.5 8t-55.5 11t-39 11l13 66q15 -4 39 -9t53 -9.5t60.5 -8t59.5 -3.5q45 0 78 5t55 19t32.5 40t10.5 68q0 36 -7 58t-25 36t-49 23.5t-79 20.5q-68 16 -112.5 32t-71 38.5t-37.5 56.5t-11 86q0 99 61.5 143t177.5 44q35 0 67.5 -2.5t59.5 -6.5
t46.5 -7.5t28.5 -6.5l-13 -66q-9 2 -29 5.5t-46.5 6.5t-56.5 5.5t-59 2.5q-79 0 -119.5 -24t-40.5 -92q0 -36 7.5 -59t27 -38t52.5 -25t83 -22q52 -12 93.5 -25t70 -35t44 -56.5t15.5 -90.5q0 -60 -17.5 -99.5t-50 -62.5t-80 -32t-107.5 -9z" />
    <glyph glyph-name="T" unicode="T" horiz-adv-x="601" 
d="M265 658h-243v68h557v-68h-241v-658h-73v658z" />
    <glyph glyph-name="U" unicode="U" horiz-adv-x="687" 
d="M344 -10q-67 0 -119 11t-87.5 41t-53.5 82t-18 134v468h74v-460q0 -59 10.5 -98.5t34.5 -63t63.5 -33.5t97.5 -10t97.5 9t63.5 32t34 62t10 100v462h71v-466q0 -81 -18 -133.5t-53 -82.5t-87 -42t-120 -12z" />
    <glyph glyph-name="V" unicode="V" horiz-adv-x="661" 
d="M19 726h75l238 -624l238 624h72l-279 -731h-65z" />
    <glyph glyph-name="W" unicode="W" horiz-adv-x="914" 
d="M19 726h75l161 -581l172 581h63l161 -581l172 581h72l-216 -731h-59l-164 591l-175 -591h-59z" />
    <glyph glyph-name="X" unicode="X" horiz-adv-x="670" 
d="M289 381l-229 345h84l191 -288l190 288h81l-229 -349l250 -377h-84l-213 320l-210 -320h-81z" />
    <glyph glyph-name="Y" unicode="Y" horiz-adv-x="652" 
d="M289 295l-270 431h81l228 -364l229 364h76l-271 -431v-295h-73v295z" />
    <glyph glyph-name="Z" unicode="Z" horiz-adv-x="577" 
d="M29 57l418 601h-409v68h497v-63l-414 -595h419v-68h-511v57z" />
    <glyph glyph-name="bracketleft" unicode="[" horiz-adv-x="280" 
d="M63 746h193v-67h-126v-732h126v-67h-193v866z" />
    <glyph glyph-name="backslash" unicode="\" horiz-adv-x="306" 
d="M-5 726h66l250 -726h-65z" />
    <glyph glyph-name="bracketright" unicode="]" horiz-adv-x="280" 
d="M27 -53h125v732h-125v67h192v-866h-192v67z" />
    <glyph glyph-name="asciicircum" unicode="^" horiz-adv-x="392" 
d="M60 374h272v-72h-272v72z" />
    <glyph glyph-name="underscore" unicode="_" horiz-adv-x="450" 
d="M-35 -55h522v-66h-522v66z" />
    <glyph glyph-name="grave" unicode="`" horiz-adv-x="449" 
d="M68 706h126l86 -170h-46z" />
    <glyph glyph-name="a" unicode="a" horiz-adv-x="489" 
d="M186 58q22 0 46 5.5t46.5 13.5t42 17t31.5 17v112q-51 0 -86.5 -1.5t-60.5 -4t-40.5 -6.5t-25.5 -9q-17 -9 -20.5 -31t-3.5 -43q0 -43 18.5 -56.5t52.5 -13.5zM166 -7q-22 0 -44.5 5.5t-40.5 20.5t-29 42.5t-11 70.5q0 45 10.5 75.5t38.5 44.5q22 11 47 17t56 9t70 3.5
t89 0.5v24q0 30 -3.5 51.5t-14 35t-30 19.5t-51.5 6q-51 0 -92.5 -6.5t-58.5 -11.5l-14 64q17 4 59 12t108 8q46 0 78.5 -8.5t52.5 -28t29.5 -51.5t9.5 -78v-318h-53l-15 50q-8 -5 -26 -14.5t-43.5 -19t-56.5 -16.5t-65 -7z" />
    <glyph glyph-name="b" unicode="b" horiz-adv-x="531" 
d="M310 59q27 0 46 7t31.5 26t18 53t5.5 88t-5.5 88.5t-17.5 54t-31 26.5t-46 7q-21 0 -45.5 -5.5t-48.5 -13t-44.5 -16.5t-33.5 -17v-258q11 -5 30.5 -12t43.5 -13t49.5 -10.5t47.5 -4.5zM329 -8q-30 0 -60 5t-56 12t-46.5 15t-31.5 13l-21 -37h-48v746h73v-326
q9 5 30 14.5t48 18.5t57.5 16t58.5 7q26 0 53 -5.5t49.5 -29.5t36.5 -72t14 -134q0 -85 -15 -134t-38 -73t-50.5 -30t-53.5 -6z" />
    <glyph glyph-name="c" unicode="c" horiz-adv-x="442" 
d="M250 -12q-109 0 -162 57.5t-53 190.5q0 67 13.5 114t41 77t68.5 43.5t95 13.5q38 0 80 -6.5t65 -12.5l-14 -64q-23 5 -59 11t-75 6q-33 0 -59 -6t-44 -25.5t-27.5 -54.5t-9.5 -94q0 -58 10 -94.5t28.5 -56t44.5 -26.5t59 -7q17 0 35 1.5t36 4t34 6t28 6.5l15 -63
q-30 -8 -69 -14.5t-81 -6.5z" />
    <glyph glyph-name="d" unicode="d" horiz-adv-x="531" 
d="M220 59q22 0 46.5 5.5t48.5 13t44 17t33 16.5v258q-10 5 -30 12t-44 13t-49.5 10.5t-47.5 4.5q-27 0 -46 -7t-31.5 -26t-18 -53t-5.5 -88t5.5 -88.5t17.5 -54t31 -26.5t46 -7zM198 -8q-26 0 -53 5.5t-49.5 29.5t-36.5 72.5t-14 133.5q0 86 15 134.5t38 72.5t51 30t53 6
q30 0 60 -5t55.5 -12t45 -14.5l29.5 -11.5v313h73v-746h-53l-15 50q-9 -5 -29.5 -15t-47.5 -19.5t-58.5 -16.5t-63.5 -7z" />
    <glyph glyph-name="e" unicode="e" horiz-adv-x="473" 
d="M354 286q0 40 -7 66t-21.5 41.5t-37 21.5t-54.5 6q-24 0 -44.5 -6t-36.5 -21t-26.5 -41t-14.5 -67h242zM250 -12q-109 0 -162 57.5t-53 190.5q0 69 15 116.5t42 77.5t64 43t81 13q49 0 85 -11.5t60 -37t36 -67.5t12 -104v-38h-321q1 -55 11 -89t28.5 -53t44.5 -25.5
t59 -6.5q18 0 38.5 1t40.5 3.5t37 5.5t29 6l13 -63q-10 -3 -28 -6.5t-39.5 -6t-45.5 -4.5t-47 -2z" />
    <glyph glyph-name="f" unicode="f" horiz-adv-x="332" 
d="M109 399h-83v66h83v112q0 38 7 64.5t27.5 46t58.5 33.5t100 27l14 -66q-46 -10 -73 -19t-40.5 -20.5t-17 -28t-3.5 -41.5v-108h125v-66h-125v-399h-73v399z" />
    <glyph glyph-name="g" unicode="g" horiz-adv-x="531" 
d="M221 59q21 0 46 6t49 15.5t44.5 20.5t32.5 21v237q-9 7 -29 15.5t-44.5 16t-50.5 13t-47 5.5q-27 0 -46.5 -7t-31.5 -26t-18 -53t-6 -88t5.5 -88.5t18 -54t31.5 -26.5t46 -7zM245 -205q-21 0 -43.5 1t-43.5 3t-38.5 4.5t-28.5 4.5l9 65q34 -5 73.5 -8t67.5 -3
q48 0 77.5 4t46 22t22.5 54.5t6 100.5v14q-10 -9 -31.5 -20t-48 -21t-56.5 -17t-59 -7q-25 0 -52.5 5.5t-49.5 29.5t-36.5 72.5t-14.5 133.5q0 86 15 134.5t38 72.5t51 30t54 6q28 0 58 -5.5t57 -14t48 -17.5t31 -16l21 42h47v-417q0 -78 -9 -127t-33 -77t-67 -38.5
t-111 -10.5z" />
    <glyph glyph-name="h" unicode="h" horiz-adv-x="528" 
d="M66 746h72v-337q12 11 35 22.5t50 21.5t56 16.5t53 6.5q65 0 98.5 -30.5t33.5 -99.5v-346h-73v327q0 44 -15.5 63t-62.5 19q-19 0 -42 -5t-47 -13.5t-46 -19.5t-39 -24v-347h-73v746z" />
    <glyph glyph-name="i" unicode="i" horiz-adv-x="215" 
d="M71 465h73v-465h-73v465zM69 686h77v-104h-77v104z" />
    <glyph glyph-name="j" unicode="j" horiz-adv-x="215" 
d="M-64 -133q46 10 73 19t40.5 20.5t17.5 28t4 41.5v489h73v-493q0 -38 -7 -64.5t-28 -46t-59 -33.5t-100 -27zM69 686h77v-104h-77v104z" />
    <glyph glyph-name="k" unicode="k" horiz-adv-x="480" 
d="M139 0h-73v746h73v-512l218 231h84l-178 -185l196 -280h-83l-161 230l-76 -79v-151z" />
    <glyph glyph-name="l" unicode="l" horiz-adv-x="215" 
d="M71 746h73v-746h-73v746z" />
    <glyph glyph-name="m" unicode="m" horiz-adv-x="834" 
d="M66 465h54l14 -57q17 12 40.5 24.5t49.5 22t53 15.5t51 6q95 0 118 -71q18 12 41.5 25t49.5 23t53 16.5t53 6.5q65 0 95.5 -30.5t30.5 -99.5v-346h-72v327q0 22 -2.5 37.5t-10.5 25.5t-22 14.5t-38 4.5q-18 0 -39.5 -4.5t-44.5 -13t-45 -19.5t-41 -25v-347h-72v327
q0 22 -2.5 37.5t-10.5 25.5t-22.5 14.5t-37.5 4.5q-19 0 -41.5 -5t-45.5 -13.5t-44.5 -19.5t-38.5 -24v-347h-73v465z" />
    <glyph glyph-name="n" unicode="n" horiz-adv-x="528" 
d="M66 465h53l15 -47q9 5 30 15t48.5 19.5t58.5 16.5t61 7q65 0 98.5 -30.5t33.5 -99.5v-346h-73v327q0 44 -15.5 63t-62.5 19q-21 0 -46 -5.5t-49 -13t-45 -16.5t-34 -17v-357h-73v465z" />
    <glyph glyph-name="o" unicode="o" horiz-adv-x="520" 
d="M261 54q32 0 59 6.5t47 26t31.5 55.5t11.5 94q0 59 -12 95t-32 55.5t-47.5 26.5t-59.5 7q-31 0 -58 -6.5t-47.5 -26t-32 -55t-11.5 -94.5q0 -58 12 -94.5t32.5 -56t48 -26.5t58.5 -7zM259 -12q-54 0 -95.5 13.5t-70 43.5t-43.5 77t-15 114t15 114.5t44 77.5t71 44t96 14
t96 -13.5t70.5 -43.5t43 -77t14.5 -114q0 -133 -59 -191.5t-167 -58.5z" />
    <glyph glyph-name="p" unicode="p" horiz-adv-x="531" 
d="M310 59q27 0 46 7t31.5 26t18 53t5.5 88t-5.5 88.5t-17.5 54t-31 26.5t-46 7q-22 0 -46.5 -5.5t-48.5 -13t-44 -16.5t-33 -17v-258q11 -5 30.5 -12t43.5 -13t49.5 -10.5t47.5 -4.5zM66 465h53l15 -47q9 5 29.5 15t47.5 19.5t59 16.5t63 7q26 0 53 -5.5t49.5 -29.5
t36.5 -72t14 -134q0 -85 -15 -134t-38 -73t-50.5 -30t-53.5 -6q-30 0 -60 5t-55.5 12t-45 14.5l-29.5 11.5v-235h-73v665z" />
    <glyph glyph-name="q" unicode="q" horiz-adv-x="526" 
d="M215 59q21 0 45.5 5.5t48.5 13t44.5 17t33.5 16.5v258q-10 5 -30 12t-44 13t-49.5 10.5t-47.5 4.5q-27 0 -46 -7t-31.5 -26t-18 -53t-5.5 -88t5.5 -88.5t17.5 -54t31 -26.5t46 -7zM387 48q-9 -5 -30 -14.5t-48 -18.5t-57 -16t-59 -7q-26 0 -53 5.5t-49.5 29.5t-36.5 72.5
t-14 133.5q0 86 15 134.5t38 72.5t51 30t53 6q30 0 60 -5t56 -12t46.5 -15t31.5 -13l21 45h48v-676h-73v248z" />
    <glyph glyph-name="r" unicode="r" horiz-adv-x="345" 
d="M66 465h53l15 -55q32 19 76.5 38.5t99.5 27.5l10 -67q-21 -3 -45 -8.5t-48 -13t-47 -17.5t-41 -21v-349h-73v465z" />
    <glyph glyph-name="s" unicode="s" horiz-adv-x="464" 
d="M221 -10q-23 0 -48.5 2.5t-49 6t-43.5 8.5t-32 9l13 63q9 -3 27.5 -7t41 -8t46.5 -6.5t45 -2.5q39 0 63.5 3.5t38.5 13t19.5 25.5t5.5 40q0 17 -5 28.5t-16.5 19t-31 12t-48.5 8.5q-55 8 -91.5 15.5t-58.5 22t-31 38.5t-9 64q0 75 46 105.5t140 30.5q25 0 50.5 -1.5
t47 -4t38 -5.5t24.5 -5l-13 -63q-9 2 -26.5 4.5t-38.5 4.5t-43.5 3.5t-40.5 1.5q-64 0 -87 -15.5t-23 -53.5q0 -20 4.5 -32t18.5 -19.5t39 -12t65 -9.5q47 -6 78.5 -15t51 -24t27.5 -38.5t8 -57.5q0 -47 -13 -76.5t-38.5 -45.5t-63 -21.5t-87.5 -5.5z" />
    <glyph glyph-name="t" unicode="t" horiz-adv-x="349" 
d="M201 -5q-98 0 -98 129v275h-83v66h83v164l72 20v-184h126v-66h-126v-265q0 -43 9.5 -56.5t28.5 -13.5q17 0 35.5 1t51.5 6l6 -68q-40 -5 -62.5 -6.5t-42.5 -1.5z" />
    <glyph glyph-name="u" unicode="u" horiz-adv-x="525" 
d="M196 -9q-65 0 -98.5 30.5t-33.5 99.5v344h73v-325q0 -43 15.5 -62.5t62.5 -19.5q21 0 45.5 5t48 12.5t44 16.5t33.5 16v357h73v-465h-53l-15 47q-9 -5 -29.5 -14.5t-47.5 -18.5t-57.5 -16t-60.5 -7z" />
    <glyph glyph-name="v" unicode="v" horiz-adv-x="473" 
d="M19 465h79l142 -390l142 390h72l-179 -469h-77z" />
    <glyph glyph-name="w" unicode="w" horiz-adv-x="720" 
d="M19 465h76l109 -363l125 363h67l124 -363l110 363h71l-147 -469h-70l-125 366l-124 -366h-69z" />
    <glyph glyph-name="x" unicode="x" horiz-adv-x="478" 
d="M196 240l-156 225h83l121 -173l117 173h76l-156 -227l166 -238h-83l-131 189l-128 -189h-76z" />
    <glyph glyph-name="y" unicode="y" horiz-adv-x="473" 
d="M19 465h79l73 -186l26.5 -68.5l23 -59.5t16.5 -42.5l6 -16.5l141 373h70l-254 -665h-73l39 102q8 19 15 37.5l12 32.5t8.5 22.5l3.5 8.5z" />
    <glyph glyph-name="z" unicode="z" horiz-adv-x="432" 
d="M26 55l281 347h-268v63h355v-55l-279 -347h292v-63h-381v55z" />
    <glyph glyph-name="braceleft" unicode="{" horiz-adv-x="397" 
d="M371 -120q-49 1 -88 6t-69 20t-51 42t-34.5 71.5t-20.5 109.5t-8 156h-93v67h93q1 88 8 151.5t20.5 107t35 69.5t51.5 40.5t69 19.5t88 6l-1 -67q-38 0 -67.5 -3t-52.5 -15t-39 -35.5t-26 -64t-14.5 -101.5t-4.5 -147q0 -129 10.5 -202t34.5 -109.5t63 -45.5t96 -9v-67z
" />
    <glyph glyph-name="bar" unicode="|" horiz-adv-x="309" 
d="M125 790h59v-990h-59v990z" />
    <glyph glyph-name="braceright" unicode="}" horiz-adv-x="397" 
d="M26 -53q38 0 67.5 3t52.5 15t39 35.5t26 64t14.5 101.5t4.5 147q0 129 -10.5 202t-34.5 109.5t-63 45.5t-96 9v67q49 -1 88 -6t69 -20t51 -42t34.5 -71.5t20.5 -109.5t8 -156h93v-67h-93q-1 -88 -8 -151.5t-20.5 -107t-35 -69.5t-51.5 -40.5t-69 -19.5t-88 -6z" />
    <glyph glyph-name="asciitilde" unicode="~" horiz-adv-x="450" 
d="M58 582l39.5 32t29 20.5t24 11t24.5 3.5q14 0 28.5 -7t28.5 -16l25.5 -16t17.5 -7q11 0 26.5 12.5l47.5 38.5l43 -50q-24 -19 -39.5 -32.5t-28 -21t-24 -11t-26.5 -3.5q-13 0 -28 7t-28.5 16l-25 16t-18.5 7q-11 0 -26 -12l-47 -38z" />
    <glyph glyph-name="Adieresis" unicode="&#xc4;" horiz-adv-x="661" 
d="M329 624l-145 -381h290zM91 0h-72l279 731h65l279 -731h-75l-67 176h-342zM72 726h104v-106h-104v106zM483 726h105v-106h-105v106z" />
    <glyph glyph-name="Aring" unicode="&#xc5;" horiz-adv-x="661" 
d="M329 624l-145 -381h290zM327 734q32 0 39.5 12.5t7.5 38.5t-7.5 39.5t-39.5 13.5t-39.5 -13.5t-7.5 -39.5t7.5 -38.5t39.5 -12.5zM91 0h-72l264 691q-29 10 -40.5 33.5t-11.5 60.5q0 49 20.5 75t75.5 26t75.5 -26t20.5 -75q0 -35 -10 -58t-36 -34l265 -693h-75l-67 176
h-342z" />
    <glyph glyph-name="Ccedilla" unicode="&#xc7;" horiz-adv-x="580" 
d="M274 -8q-49 5 -91 22.5t-73.5 58.5t-49.5 111t-18 179q0 126 24 200.5t64.5 113.5t94 50.5t112.5 11.5q72 0 125 -9t75 -17l-16 -65q-12 3 -31.5 6.5t-44 7t-53 6t-57.5 2.5q-53 0 -93.5 -11.5t-67.5 -43t-40.5 -86t-13.5 -140.5v-48q0 -84 14 -138.5t41.5 -87t68.5 -45
t94 -12.5q29 0 58.5 3t55 6.5t44.5 7.5t26 6l16 -65q-32 -11 -81 -18.5t-111 -8.5l24 -121q-19 -19 -55.5 -36.5t-93.5 -25.5l-13 71q31 5 51 12t31 13z" />
    <glyph glyph-name="Eacute" unicode="&#xc9;" horiz-adv-x="544" 
d="M303 946h126l-166 -170h-46zM76 726h426v-68h-353v-240h270v-68h-270v-282h353v-68h-426v726z" />
    <glyph glyph-name="Ntilde" unicode="&#xd1;" horiz-adv-x="689" 
d="M177 822l39.5 32t29 20.5t24 11t24.5 3.5q14 0 28.5 -7t28.5 -16l25.5 -16t17.5 -7q11 0 26.5 12.5l47.5 38.5l43 -50q-24 -19 -39.5 -32.5t-28 -21t-24 -11t-26.5 -3.5q-13 0 -28 7t-28.5 16l-25 16t-18.5 7q-11 0 -26 -12l-47 -38zM76 726h69l398 -596v596h70v-726h-66
l-401 600v-600h-70v726z" />
    <glyph glyph-name="Odieresis" unicode="&#xd6;" horiz-adv-x="694" 
d="M199 892h104v-106h-104v106zM390 892h105v-106h-105v106zM348 58q50 0 91.5 11.5t71.5 42t46.5 85.5t16.5 142v48q0 87 -17 142t-47.5 86.5t-72 43t-91.5 11.5q-49 0 -90.5 -11.5t-71.5 -42t-47 -85.5t-17 -142v-48q0 -87 17 -142t47.5 -86.5t72.5 -43t91 -11.5zM346 -11
q-63 0 -118.5 15t-97 56.5t-65 114.5t-23.5 188q0 116 24 189t65.5 114.5t97.5 57t119 15.5t118.5 -15t97 -56.5t65 -114t23.5 -188.5q0 -115 -24 -188.5t-65.5 -115t-97.5 -57t-119 -15.5z" />
    <glyph glyph-name="Udieresis" unicode="&#xdc;" horiz-adv-x="687" 
d="M195 892h104v-106h-104v106zM386 892h105v-106h-105v106zM344 -10q-67 0 -119 11t-87.5 41t-53.5 82t-18 134v468h74v-460q0 -59 10.5 -98.5t34.5 -63t63.5 -33.5t97.5 -10t97.5 9t63.5 32t34 62t10 100v462h71v-466q0 -81 -18 -133.5t-53 -82.5t-87 -42t-120 -12z" />
    <glyph glyph-name="aacute" unicode="&#xe1;" horiz-adv-x="489" 
d="M278 706h126l-166 -170h-46zM186 58q22 0 46 5.5t46.5 13.5t42 17t31.5 17v112q-51 0 -86.5 -1.5t-60.5 -4t-40.5 -6.5t-25.5 -9q-17 -9 -20.5 -31t-3.5 -43q0 -43 18.5 -56.5t52.5 -13.5zM166 -7q-22 0 -44.5 5.5t-40.5 20.5t-29 42.5t-11 70.5q0 45 10.5 75.5
t38.5 44.5q22 11 47 17t56 9t70 3.5t89 0.5v24q0 30 -3.5 51.5t-14 35t-30 19.5t-51.5 6q-51 0 -92.5 -6.5t-58.5 -11.5l-14 64q17 4 59 12t108 8q46 0 78.5 -8.5t52.5 -28t29.5 -51.5t9.5 -78v-318h-53l-15 50q-8 -5 -26 -14.5t-43.5 -19t-56.5 -16.5t-65 -7z" />
    <glyph glyph-name="agrave" unicode="&#xe0;" horiz-adv-x="489" 
d="M91 706h126l86 -170h-46zM186 58q22 0 46 5.5t46.5 13.5t42 17t31.5 17v112q-51 0 -86.5 -1.5t-60.5 -4t-40.5 -6.5t-25.5 -9q-17 -9 -20.5 -31t-3.5 -43q0 -43 18.5 -56.5t52.5 -13.5zM166 -7q-22 0 -44.5 5.5t-40.5 20.5t-29 42.5t-11 70.5q0 45 10.5 75.5t38.5 44.5
q22 11 47 17t56 9t70 3.5t89 0.5v24q0 30 -3.5 51.5t-14 35t-30 19.5t-51.5 6q-51 0 -92.5 -6.5t-58.5 -11.5l-14 64q17 4 59 12t108 8q46 0 78.5 -8.5t52.5 -28t29.5 -51.5t9.5 -78v-318h-53l-15 50q-8 -5 -26 -14.5t-43.5 -19t-56.5 -16.5t-65 -7z" />
    <glyph glyph-name="acircumflex" unicode="&#xe2;" horiz-adv-x="489" 
d="M213 692h69l123 -156h-53l-105 85l-104 -85h-53zM186 58q22 0 46 5.5t46.5 13.5t42 17t31.5 17v112q-51 0 -86.5 -1.5t-60.5 -4t-40.5 -6.5t-25.5 -9q-17 -9 -20.5 -31t-3.5 -43q0 -43 18.5 -56.5t52.5 -13.5zM166 -7q-22 0 -44.5 5.5t-40.5 20.5t-29 42.5t-11 70.5
q0 45 10.5 75.5t38.5 44.5q22 11 47 17t56 9t70 3.5t89 0.5v24q0 30 -3.5 51.5t-14 35t-30 19.5t-51.5 6q-51 0 -92.5 -6.5t-58.5 -11.5l-14 64q17 4 59 12t108 8q46 0 78.5 -8.5t52.5 -28t29.5 -51.5t9.5 -78v-318h-53l-15 50q-8 -5 -26 -14.5t-43.5 -19t-56.5 -16.5
t-65 -7z" />
    <glyph glyph-name="adieresis" unicode="&#xe4;" horiz-adv-x="489" 
d="M99 652h104v-106h-104v106zM290 652h105v-106h-105v106zM186 58q22 0 46 5.5t46.5 13.5t42 17t31.5 17v112q-51 0 -86.5 -1.5t-60.5 -4t-40.5 -6.5t-25.5 -9q-17 -9 -20.5 -31t-3.5 -43q0 -43 18.5 -56.5t52.5 -13.5zM166 -7q-22 0 -44.5 5.5t-40.5 20.5t-29 42.5
t-11 70.5q0 45 10.5 75.5t38.5 44.5q22 11 47 17t56 9t70 3.5t89 0.5v24q0 30 -3.5 51.5t-14 35t-30 19.5t-51.5 6q-51 0 -92.5 -6.5t-58.5 -11.5l-14 64q17 4 59 12t108 8q46 0 78.5 -8.5t52.5 -28t29.5 -51.5t9.5 -78v-318h-53l-15 50q-8 -5 -26 -14.5t-43.5 -19
t-56.5 -16.5t-65 -7z" />
    <glyph glyph-name="atilde" unicode="&#xe3;" horiz-adv-x="489" 
d="M80 582l39.5 32t29 20.5t24 11t24.5 3.5q14 0 28.5 -7t28.5 -16l25.5 -16t17.5 -7q11 0 26.5 12.5l47.5 38.5l43 -50q-24 -19 -39.5 -32.5t-28 -21t-24 -11t-26.5 -3.5q-13 0 -28 7t-28.5 16l-25 16t-18.5 7q-11 0 -26 -12l-47 -38zM186 58q22 0 46 5.5t46.5 13.5t42 17
t31.5 17v112q-51 0 -86.5 -1.5t-60.5 -4t-40.5 -6.5t-25.5 -9q-17 -9 -20.5 -31t-3.5 -43q0 -43 18.5 -56.5t52.5 -13.5zM166 -7q-22 0 -44.5 5.5t-40.5 20.5t-29 42.5t-11 70.5q0 45 10.5 75.5t38.5 44.5q22 11 47 17t56 9t70 3.5t89 0.5v24q0 30 -3.5 51.5t-14 35
t-30 19.5t-51.5 6q-51 0 -92.5 -6.5t-58.5 -11.5l-14 64q17 4 59 12t108 8q46 0 78.5 -8.5t52.5 -28t29.5 -51.5t9.5 -78v-318h-53l-15 50q-8 -5 -26 -14.5t-43.5 -19t-56.5 -16.5t-65 -7z" />
    <glyph glyph-name="aring" unicode="&#xe5;" horiz-adv-x="489" 
d="M248 577q32 0 39.5 12.5t7.5 38.5t-7.5 39.5t-39.5 13.5t-39.5 -13.5t-7.5 -39.5t7.5 -38.5t39.5 -12.5zM248 528q-55 0 -75.5 25.5t-20.5 74.5t20.5 75t75.5 26t75.5 -26t20.5 -75t-21 -74.5t-75 -25.5zM186 58q22 0 46 5.5t46.5 13.5t42 17t31.5 17v112
q-51 0 -86.5 -1.5t-60.5 -4t-40.5 -6.5t-25.5 -9q-17 -9 -20.5 -31t-3.5 -43q0 -43 18.5 -56.5t52.5 -13.5zM166 -7q-22 0 -44.5 5.5t-40.5 20.5t-29 42.5t-11 70.5q0 45 10.5 75.5t38.5 44.5q22 11 47 17t56 9t70 3.5t89 0.5v24q0 30 -3.5 51.5t-14 35t-30 19.5t-51.5 6
q-51 0 -92.5 -6.5t-58.5 -11.5l-14 64q17 4 59 12t108 8q46 0 78.5 -8.5t52.5 -28t29.5 -51.5t9.5 -78v-318h-53l-15 50q-8 -5 -26 -14.5t-43.5 -19t-56.5 -16.5t-65 -7z" />
    <glyph glyph-name="ccedilla" unicode="&#xe7;" horiz-adv-x="442" 
d="M205 -9q-87 11 -128.5 68.5t-41.5 176.5q0 67 13.5 114t41 77t68.5 43.5t95 13.5q38 0 80 -6.5t65 -12.5l-14 -64q-23 5 -59 11t-75 6q-33 0 -59 -6t-44 -25.5t-27.5 -54.5t-9.5 -94q0 -58 10 -94.5t28.5 -56t44.5 -26.5t59 -7q17 0 35 1.5t36 4t34 6t28 6.5l15 -63
q-25 -7 -56.5 -12.5t-66.5 -7.5l24 -121q-19 -19 -55.5 -36.5t-93.5 -25.5l-13 71q31 5 51 12t31 13z" />
    <glyph glyph-name="eacute" unicode="&#xe9;" horiz-adv-x="473" 
d="M267 706h126l-166 -170h-46zM354 286q0 40 -7 66t-21.5 41.5t-37 21.5t-54.5 6q-24 0 -44.5 -6t-36.5 -21t-26.5 -41t-14.5 -67h242zM250 -12q-109 0 -162 57.5t-53 190.5q0 69 15 116.5t42 77.5t64 43t81 13q49 0 85 -11.5t60 -37t36 -67.5t12 -104v-38h-321
q1 -55 11 -89t28.5 -53t44.5 -25.5t59 -6.5q18 0 38.5 1t40.5 3.5t37 5.5t29 6l13 -63q-10 -3 -28 -6.5t-39.5 -6t-45.5 -4.5t-47 -2z" />
    <glyph glyph-name="egrave" unicode="&#xe8;" horiz-adv-x="473" 
d="M80 706h126l86 -170h-46zM354 286q0 40 -7 66t-21.5 41.5t-37 21.5t-54.5 6q-24 0 -44.5 -6t-36.5 -21t-26.5 -41t-14.5 -67h242zM250 -12q-109 0 -162 57.5t-53 190.5q0 69 15 116.5t42 77.5t64 43t81 13q49 0 85 -11.5t60 -37t36 -67.5t12 -104v-38h-321q1 -55 11 -89
t28.5 -53t44.5 -25.5t59 -6.5q18 0 38.5 1t40.5 3.5t37 5.5t29 6l13 -63q-10 -3 -28 -6.5t-39.5 -6t-45.5 -4.5t-47 -2z" />
    <glyph glyph-name="ecircumflex" unicode="&#xea;" horiz-adv-x="473" 
d="M202 692h69l123 -156h-53l-105 85l-104 -85h-53zM354 286q0 40 -7 66t-21.5 41.5t-37 21.5t-54.5 6q-24 0 -44.5 -6t-36.5 -21t-26.5 -41t-14.5 -67h242zM250 -12q-109 0 -162 57.5t-53 190.5q0 69 15 116.5t42 77.5t64 43t81 13q49 0 85 -11.5t60 -37t36 -67.5t12 -104
v-38h-321q1 -55 11 -89t28.5 -53t44.5 -25.5t59 -6.5q18 0 38.5 1t40.5 3.5t37 5.5t29 6l13 -63q-10 -3 -28 -6.5t-39.5 -6t-45.5 -4.5t-47 -2z" />
    <glyph glyph-name="edieresis" unicode="&#xeb;" horiz-adv-x="473" 
d="M88 652h104v-106h-104v106zM279 652h105v-106h-105v106zM354 286q0 40 -7 66t-21.5 41.5t-37 21.5t-54.5 6q-24 0 -44.5 -6t-36.5 -21t-26.5 -41t-14.5 -67h242zM250 -12q-109 0 -162 57.5t-53 190.5q0 69 15 116.5t42 77.5t64 43t81 13q49 0 85 -11.5t60 -37t36 -67.5
t12 -104v-38h-321q1 -55 11 -89t28.5 -53t44.5 -25.5t59 -6.5q18 0 38.5 1t40.5 3.5t37 5.5t29 6l13 -63q-10 -3 -28 -6.5t-39.5 -6t-45.5 -4.5t-47 -2z" />
    <glyph glyph-name="iacute" unicode="&#xed;" horiz-adv-x="215" 
d="M168 706h126l-166 -170h-46zM71 465h73v-465h-73v465z" />
    <glyph glyph-name="igrave" unicode="&#xec;" horiz-adv-x="215" 
d="M-79 706h126l86 -170h-46zM71 465h73v-465h-73v465z" />
    <glyph glyph-name="icircumflex" unicode="&#xee;" horiz-adv-x="215" 
d="M73 692h69l123 -156h-53l-105 85l-104 -85h-53zM71 465h73v-465h-73v465z" />
    <glyph glyph-name="idieresis" unicode="&#xef;" horiz-adv-x="215" 
d="M-41 652h104v-106h-104v106zM150 652h105v-106h-105v106zM71 465h73v-465h-73v465z" />
    <glyph glyph-name="ntilde" unicode="&#xf1;" horiz-adv-x="528" 
d="M97 582l39.5 32t29 20.5t24 11t24.5 3.5q14 0 28.5 -7t28.5 -16l25.5 -16t17.5 -7q11 0 26.5 12.5l47.5 38.5l43 -50q-24 -19 -39.5 -32.5t-28 -21t-24 -11t-26.5 -3.5q-13 0 -28 7t-28.5 16l-25 16t-18.5 7q-11 0 -26 -12l-47 -38zM66 465h53l15 -47q9 5 30 15
t48.5 19.5t58.5 16.5t61 7q65 0 98.5 -30.5t33.5 -99.5v-346h-73v327q0 44 -15.5 63t-62.5 19q-21 0 -46 -5.5t-49 -13t-45 -16.5t-34 -17v-357h-73v465z" />
    <glyph glyph-name="oacute" unicode="&#xf3;" horiz-adv-x="520" 
d="M291 706h126l-166 -170h-46zM261 54q32 0 59 6.5t47 26t31.5 55.5t11.5 94q0 59 -12 95t-32 55.5t-47.5 26.5t-59.5 7q-31 0 -58 -6.5t-47.5 -26t-32 -55t-11.5 -94.5q0 -58 12 -94.5t32.5 -56t48 -26.5t58.5 -7zM259 -12q-54 0 -95.5 13.5t-70 43.5t-43.5 77t-15 114
t15 114.5t44 77.5t71 44t96 14t96 -13.5t70.5 -43.5t43 -77t14.5 -114q0 -133 -59 -191.5t-167 -58.5z" />
    <glyph glyph-name="ograve" unicode="&#xf2;" horiz-adv-x="520" 
d="M104 706h126l86 -170h-46zM261 54q32 0 59 6.5t47 26t31.5 55.5t11.5 94q0 59 -12 95t-32 55.5t-47.5 26.5t-59.5 7q-31 0 -58 -6.5t-47.5 -26t-32 -55t-11.5 -94.5q0 -58 12 -94.5t32.5 -56t48 -26.5t58.5 -7zM259 -12q-54 0 -95.5 13.5t-70 43.5t-43.5 77t-15 114
t15 114.5t44 77.5t71 44t96 14t96 -13.5t70.5 -43.5t43 -77t14.5 -114q0 -133 -59 -191.5t-167 -58.5z" />
    <glyph glyph-name="ocircumflex" unicode="&#xf4;" horiz-adv-x="520" 
d="M226 692h69l123 -156h-53l-105 85l-104 -85h-53zM261 54q32 0 59 6.5t47 26t31.5 55.5t11.5 94q0 59 -12 95t-32 55.5t-47.5 26.5t-59.5 7q-31 0 -58 -6.5t-47.5 -26t-32 -55t-11.5 -94.5q0 -58 12 -94.5t32.5 -56t48 -26.5t58.5 -7zM259 -12q-54 0 -95.5 13.5t-70 43.5
t-43.5 77t-15 114t15 114.5t44 77.5t71 44t96 14t96 -13.5t70.5 -43.5t43 -77t14.5 -114q0 -133 -59 -191.5t-167 -58.5z" />
    <glyph glyph-name="odieresis" unicode="&#xf6;" horiz-adv-x="520" 
d="M112 652h104v-106h-104v106zM303 652h105v-106h-105v106zM261 54q32 0 59 6.5t47 26t31.5 55.5t11.5 94q0 59 -12 95t-32 55.5t-47.5 26.5t-59.5 7q-31 0 -58 -6.5t-47.5 -26t-32 -55t-11.5 -94.5q0 -58 12 -94.5t32.5 -56t48 -26.5t58.5 -7zM259 -12q-54 0 -95.5 13.5
t-70 43.5t-43.5 77t-15 114t15 114.5t44 77.5t71 44t96 14t96 -13.5t70.5 -43.5t43 -77t14.5 -114q0 -133 -59 -191.5t-167 -58.5z" />
    <glyph glyph-name="otilde" unicode="&#xf5;" horiz-adv-x="520" 
d="M93 582l39.5 32t29 20.5t24 11t24.5 3.5q14 0 28.5 -7t28.5 -16l25.5 -16t17.5 -7q11 0 26.5 12.5l47.5 38.5l43 -50q-24 -19 -39.5 -32.5t-28 -21t-24 -11t-26.5 -3.5q-13 0 -28 7t-28.5 16l-25 16t-18.5 7q-11 0 -26 -12l-47 -38zM261 54q32 0 59 6.5t47 26t31.5 55.5
t11.5 94q0 59 -12 95t-32 55.5t-47.5 26.5t-59.5 7q-31 0 -58 -6.5t-47.5 -26t-32 -55t-11.5 -94.5q0 -58 12 -94.5t32.5 -56t48 -26.5t58.5 -7zM259 -12q-54 0 -95.5 13.5t-70 43.5t-43.5 77t-15 114t15 114.5t44 77.5t71 44t96 14t96 -13.5t70.5 -43.5t43 -77t14.5 -114
q0 -133 -59 -191.5t-167 -58.5z" />
    <glyph glyph-name="uacute" unicode="&#xfa;" horiz-adv-x="525" 
d="M293 706h126l-166 -170h-46zM196 -9q-65 0 -98.5 30.5t-33.5 99.5v344h73v-325q0 -43 15.5 -62.5t62.5 -19.5q21 0 45.5 5t48 12.5t44 16.5t33.5 16v357h73v-465h-53l-15 47q-9 -5 -29.5 -14.5t-47.5 -18.5t-57.5 -16t-60.5 -7z" />
    <glyph glyph-name="ugrave" unicode="&#xf9;" horiz-adv-x="525" 
d="M106 706h126l86 -170h-46zM196 -9q-65 0 -98.5 30.5t-33.5 99.5v344h73v-325q0 -43 15.5 -62.5t62.5 -19.5q21 0 45.5 5t48 12.5t44 16.5t33.5 16v357h73v-465h-53l-15 47q-9 -5 -29.5 -14.5t-47.5 -18.5t-57.5 -16t-60.5 -7z" />
    <glyph glyph-name="ucircumflex" unicode="&#xfb;" horiz-adv-x="525" 
d="M228 692h69l123 -156h-53l-105 85l-104 -85h-53zM196 -9q-65 0 -98.5 30.5t-33.5 99.5v344h73v-325q0 -43 15.5 -62.5t62.5 -19.5q21 0 45.5 5t48 12.5t44 16.5t33.5 16v357h73v-465h-53l-15 47q-9 -5 -29.5 -14.5t-47.5 -18.5t-57.5 -16t-60.5 -7z" />
    <glyph glyph-name="udieresis" unicode="&#xfc;" horiz-adv-x="525" 
d="M114 652h104v-106h-104v106zM305 652h105v-106h-105v106zM196 -9q-65 0 -98.5 30.5t-33.5 99.5v344h73v-325q0 -43 15.5 -62.5t62.5 -19.5q21 0 45.5 5t48 12.5t44 16.5t33.5 16v357h73v-465h-53l-15 47q-9 -5 -29.5 -14.5t-47.5 -18.5t-57.5 -16t-60.5 -7z" />
    <glyph glyph-name="dagger" unicode="&#x2020;" horiz-adv-x="456" 
d="M194 447h-167v66h167v233h70v-233h167v-66h-167v-567h-70v567z" />
    <glyph glyph-name="degree" unicode="&#xb0;" horiz-adv-x="424" 
d="M213 405q23 0 43 4.5t35 18.5t23.5 40.5t8.5 70.5t-9 71t-24 41.5t-35.5 19t-43.5 4.5t-43 -4.5t-35 -18.5t-23.5 -40.5t-8.5 -70.5t9 -71t24 -41.5t35.5 -19t43.5 -4.5zM211 341q-86 0 -133.5 46t-47.5 152q0 107 48.5 153.5t134.5 46.5t133.5 -45.5t47.5 -152.5
q0 -106 -48.5 -153t-134.5 -47z" />
    <glyph glyph-name="cent" unicode="&#xa2;" horiz-adv-x="431" 
d="M217 543q-25 -3 -45 -12t-33.5 -29t-21 -53t-7.5 -84q0 -50 7.5 -83.5t21 -54.5t33.5 -31t45 -13v360zM281 0h-66v116q-91 9 -135.5 67t-44.5 180t44.5 179.5t135.5 66.5v117h66v-116q33 -2 65.5 -7.5t51.5 -10.5l-14 -64q-19 5 -46.5 9.5t-58.5 6.5v-362q29 2 58 7
t48 10l15 -63q-24 -7 -55 -12.5t-64 -7.5v-116z" />
    <glyph glyph-name="sterling" unicode="&#xa3;" horiz-adv-x="560" 
d="M25 68h158q-3 17 -9 45.5l-13.5 65t-15 78l-15.5 83.5h-105v67h95q-8 48 -12.5 86t-4.5 59q0 45 11 79.5t36 58.5t65.5 36.5t98.5 12.5q26 0 53 -2t53.5 -6t50 -9t42.5 -10l-16 -65q-38 10 -84 16.5t-99 6.5q-40 0 -66.5 -7.5t-42.5 -22t-22 -36.5t-6 -51q0 -26 4 -63.5
t11 -82.5h205v-67h-194q7 -40 15 -79.5l15 -75.5t13.5 -66t10.5 -51h271v-68h-503v68z" />
    <glyph glyph-name="section" unicode="&#xa7;" horiz-adv-x="540" 
d="M389 270q16 23 26.5 47t10.5 49q0 19 -6 31t-22 20.5t-43 13.5t-69 9t-75 8t-58 12q-17 -23 -27 -47t-10 -49q0 -19 6 -31t21.5 -20.5t43 -13.5t69.5 -9t74.5 -8t58.5 -12zM278 -6q-30 0 -60 1.5t-55.5 4t-44.5 5.5t-28 6l11 63q9 -2 28.5 -4.5t44.5 -5t52 -4t52 -1.5
q39 0 63 4t38 13t19 23.5t5 35.5q0 28 -5.5 43t-23 22.5t-49.5 11t-86 8.5t-90.5 14t-59 24t-32.5 36.5t-10 52.5q0 40 15.5 75.5t37.5 64.5q-17 17 -25 42.5t-8 65.5q0 69 44.5 105t151.5 36q31 0 61 -2.5t55.5 -6t44.5 -7.5t27 -7l-15 -60q-11 3 -31 6t-44 5.5t-49.5 4.5
t-48.5 2q-38 0 -62.5 -4t-38 -13t-18.5 -23.5t-5 -35.5q0 -28 5.5 -43t23 -22.5t49.5 -11t85 -8.5q54 -5 91 -14t59.5 -24t32.5 -36.5t10 -52.5q0 -40 -16 -76t-37 -65q17 -16 24.5 -41.5t7.5 -65.5q0 -69 -44 -105t-152 -36z" />
    <glyph glyph-name="bullet" unicode="&#x2022;" horiz-adv-x="460" 
d="M232 94q-34 0 -65 7t-53.5 28t-36 58.5t-13.5 98.5t13 98.5t35.5 57.5t53 27t64.5 7q35 0 65.5 -7t53 -28t36 -58.5t13.5 -98.5t-13 -98.5t-35.5 -57.5t-52.5 -27t-65 -7z" />
    <glyph glyph-name="paragraph" unicode="&#xb6;" horiz-adv-x="566" 
d="M417 371v288h-178q-27 0 -52 -4t-44.5 -19t-31 -43.5t-11.5 -77.5t11.5 -77.5t30.5 -43.5t43.5 -19t51.5 -4h180zM245 304q-56 0 -97 11t-68 36t-40 65.5t-13 100.5q0 59 12.5 98.5t38 64.5t65.5 35.5t94 10.5h253v-726h-73v304h-99v-304h-73v304z" />
    <glyph glyph-name="germandbls" unicode="&#xdf;" horiz-adv-x="605" 
d="M251 56q92 10 144 22t76 37q17 17 23.5 43t6.5 68q0 43 -7.5 69.5t-25.5 43.5q-23 21 -64.5 31.5t-107.5 18.5v37v22q38 35 60 57.5t33 40.5t14 37t3 48q0 22 -8 34.5t-25.5 19t-43.5 8t-62 1.5q-26 0 -43 -3.5t-26.5 -12t-13 -22.5t-3.5 -34v-622h-72v399h-83v66h83v167
q0 32 8 56t27 40.5t50.5 24.5t78.5 8q57 0 96 -5.5t63.5 -20t35.5 -39.5t11 -63q0 -34 -6.5 -58t-19.5 -45t-33 -41.5t-48 -46.5q54 -8 92 -22t62 -40q23 -25 34.5 -61t11.5 -91q0 -57 -10.5 -93.5t-33.5 -61.5q-35 -39 -101.5 -55t-166.5 -27z" />
    <glyph glyph-name="registered" unicode="&#xae;" horiz-adv-x="826" 
d="M433 357q35 0 56 18.5t21 71.5q0 27 -5.5 43.5t-15.5 25t-22 11.5t-26 3h-112v-173h104zM266 585h181q59 0 92.5 -31.5t33.5 -106.5q0 -61 -18 -92t-60 -42l118 -168h-69l-114 157h-101v-157h-63v440zM413 52q79 0 135 11t92 44t53 94.5t17 163.5t-17 163t-53 94
t-92 43.5t-135 10.5t-135.5 -10.5t-92.5 -43.5t-53 -94t-17 -163t17 -163.5t53 -94.5t92.5 -44t135.5 -11zM413 -12q-94 0 -162 16.5t-112 59t-65.5 115.5t-21.5 185q0 113 21.5 185.5t65.5 115t112 59t162 16.5t162 -16.5t112.5 -59t65.5 -115t21 -185.5q0 -112 -21 -185
t-65.5 -115.5t-112.5 -59t-162 -16.5z" />
    <glyph glyph-name="copyright" unicode="&#xa9;" horiz-adv-x="826" 
d="M416 129q-37 0 -71 7t-59.5 31t-40.5 70.5t-15 125.5q0 80 15.5 126.5t41 71t60 31.5t71.5 7q44 0 74.5 -5.5t60.5 -13.5l-18 -56q-19 3 -34.5 6t-29 4.5t-27 2.5t-28.5 1q-30 0 -52 -7t-37 -24.5t-22.5 -48.5t-7.5 -79v-29q0 -47 7.5 -78t23 -49t38 -25.5t52.5 -7.5
q31 0 58 4t62 11l16 -57q-31 -9 -64.5 -14t-73.5 -5zM413 52q79 0 135 11t92 44t53 94.5t17 163.5t-17 163t-53 94t-92 43.5t-135 10.5t-135.5 -10.5t-92.5 -43.5t-53 -94t-17 -163t17 -163.5t53 -94.5t92.5 -44t135.5 -11zM413 -12q-94 0 -162 16.5t-112 59t-65.5 115.5
t-21.5 185q0 113 21.5 185.5t65.5 115t112 59t162 16.5t162 -16.5t112.5 -59t65.5 -115t21 -185.5q0 -112 -21 -185t-65.5 -115.5t-112.5 -59t-162 -16.5z" />
    <glyph glyph-name="trademark" unicode="&#x2122;" horiz-adv-x="879" 
d="M429 726h84l110 -346l110 346h88v-436h-57v378l-125 -380h-42l-117 380v-378h-51v436zM165 676h-137v50h333v-50h-138v-386h-58v386z" />
    <glyph glyph-name="acute" unicode="&#xb4;" horiz-adv-x="449" 
d="M255 706h126l-166 -170h-46z" />
    <glyph glyph-name="dieresis" unicode="&#xa8;" horiz-adv-x="450" 
d="M77 652h104v-106h-104v106zM268 652h105v-106h-105v106z" />
    <glyph glyph-name="notequal" unicode="&#x2260;" horiz-adv-x="660" 
d="M109 399h-83v66h83v75q0 38 7 64.5t27.5 46t58.5 33.5t100 27l14 -66q-46 -10 -73 -19t-40.5 -20.5t-17 -28t-3.5 -41.5v-71h255v112q0 38 7 64.5t27.5 46t58.5 33.5t100 27l14 -66q-46 -10 -73 -19t-40.5 -20.5t-17 -28t-3.5 -41.5v-108h125v-66h-125v-399h-73v399h-255
v-399h-73v399z" />
    <glyph glyph-name="AE" unicode="&#xc6;" horiz-adv-x="964" 
d="M498 296v377l-225 -377h225zM454 726h468v-68h-353v-240h270v-68h-270v-282h353v-68h-424v227h-266l-132 -227h-81z" />
    <glyph glyph-name="Oslash" unicode="&#xd8;" horiz-adv-x="694" 
d="M224 83q26 -14 57.5 -19.5t66.5 -5.5q50 0 91.5 11.5t71.5 42t46.5 85.5t16.5 142v48q0 83 -15.5 136.5t-42.5 85.5zM468 646q-26 14 -56.5 19t-65.5 5q-49 0 -90.5 -11.5t-71.5 -42t-47 -85.5t-17 -142v-48q0 -82 15 -135.5t42 -85.5zM554 677q45 -41 71.5 -115
t26.5 -197q0 -115 -24 -188.5t-65.5 -115t-97.5 -57t-119 -15.5q-44 0 -83 6.5t-74 23.5l-43 -77h-67q9 18 20 36l19.5 35.5l21.5 38.5q-45 40 -71.5 114t-26.5 197q0 116 24 189t65.5 114.5t97.5 57t119 15.5q43 0 82 -6.5t73 -22.5l43 76h68z" />
    <glyph glyph-name="infinity" unicode="&#x221e;" horiz-adv-x="905" 
d="M109 399h-83v66h83v75q0 38 7 64.5t27.5 46t58.5 33.5t100 27l14 -66q-46 -10 -73 -19t-40.5 -20.5t-17 -28t-3.5 -41.5v-71h255v101q0 39 11.5 67.5t44 50t91.5 36.5t154 27l8 -69q-81 -11 -128 -21.5t-71 -23.5t-30.5 -30t-6.5 -41v-97h324v-465h-73v399h-251v-399h-73
v399h-255v-399h-73v399z" />
    <glyph glyph-name="plusminus" unicode="&#xb1;" horiz-adv-x="905" 
d="M761 746h73v-746h-73v746zM109 399h-83v66h83v75q0 38 7 64.5t27.5 46t58.5 33.5t100 27l14 -66q-46 -10 -73 -19t-40.5 -20.5t-17 -28t-3.5 -41.5v-71h255v112q0 38 7.5 65t28 46.5t56 33.5t91.5 26l14 -66q-41 -9 -65.5 -17.5t-37.5 -20.5t-17 -29t-4 -42v-108h125v-66
h-125v-399h-73v399h-255v-399h-73v399z" />
    <glyph glyph-name="lessequal" unicode="&#x2264;" horiz-adv-x="521" 
d="M221 59q21 0 44.5 6t45.5 15.5t41 20.5t31 21v237q-9 7 -27.5 15.5t-41 16t-47 13t-45.5 5.5q-27 0 -46.5 -7t-31.5 -26t-18 -53t-6 -88t5.5 -88.5t18 -54t31.5 -26.5t46 -7zM198 -8q-25 0 -52.5 5.5t-49.5 29.5t-36.5 72.5t-14.5 133.5q0 86 15 134.5t38 72.5t51 30
t54 6q28 0 56.5 -5.5t53.5 -14t44.5 -17.5t29.5 -16l21 42h47v-465h-53l-15 60q-10 -9 -30.5 -21t-46 -22.5t-54.5 -17.5t-58 -7z" />
    <glyph glyph-name="greaterequal" unicode="&#x2265;" horiz-adv-x="510" 
d="M236 223q43 0 69.5 3t41 12.5t19.5 29t5 52.5q0 23 -3 46t-8 40q-47 11 -134 11q-38 0 -62 -4t-38 -14.5t-19 -29.5t-5 -49t5 -49t19 -29.5t40.5 -14.5t69.5 -4zM48 -134q121 1 193 5t109.5 12.5t48.5 23.5t11 39q0 25 -7 40t-37 24t-91.5 14t-169.5 8l21 135
q-56 13 -77 48t-21 105q0 50 11 81.5t35.5 49.5t63 24.5t93.5 6.5q52 0 90 -3.5t60 -8.5l34 63l58 -35l-42 -73q2 -6 4.5 -17t5 -25t4 -30t1.5 -32q0 -47 -10 -78.5t-34.5 -50t-65 -26.5t-101.5 -8h-23.5t-21.5 1l-10 -63q94 -3 153.5 -9.5t93 -22.5t46 -43.5t12.5 -72.5
q0 -48 -20.5 -77.5t-70 -45.5t-133.5 -22t-210 -7z" />
    <glyph glyph-name="yen" unicode="&#xa5;" horiz-adv-x="652" 
d="M600 437v-65h-190l-48 -77v-40h238v-65h-238v-190h-73v190h-238v65h238v40l-48 77h-190v65h149l-181 289h83l228 -367l228 367h75l-182 -289h149z" />
    <glyph glyph-name="mu" unicode="&#xb5;" horiz-adv-x="709" 
d="M85 76q0 67 18.5 111t50.5 70.5t75.5 37t93.5 10.5v95h-238v194h71v-128h167v67h-53v192h176v-192h-53v-67h162v128h70v-194h-232v-95q50 0 93.5 -10.5t75.5 -37t50.5 -70.5t18.5 -111v-76h-73v72q0 49 -9.5 80.5t-30 49.5t-51.5 25t-74 7v-100h-70v100q-43 0 -74 -7
t-51.5 -25t-30 -49.5t-9.5 -80.5v-72h-73v76z" />
    <glyph glyph-name="mu" unicode="&#x3bc;" horiz-adv-x="709" 
d="M85 76q0 67 18.5 111t50.5 70.5t75.5 37t93.5 10.5v95h-238v194h71v-128h167v67h-53v192h176v-192h-53v-67h162v128h70v-194h-232v-95q50 0 93.5 -10.5t75.5 -37t50.5 -70.5t18.5 -111v-76h-73v72q0 49 -9.5 80.5t-30 49.5t-51.5 25t-74 7v-100h-70v100q-43 0 -74 -7
t-51.5 -25t-30 -49.5t-9.5 -80.5v-72h-73v76z" />
    <glyph glyph-name="partialdiff" unicode="&#x2202;" horiz-adv-x="709" 
d="M74 76q0 67 18.5 111t50.5 70.5t75.5 37t93.5 10.5v95h-238v194h71v-128h167v67h-53v192h176v-192h-53v-67h162v128h70v-194h-232v-95q50 0 93.5 -10.5t75.5 -37t50.5 -70.5t18.5 -111v-76h-73v72q0 49 -9.5 80.5t-30 49.5t-51.5 25t-74 7v-100h-70v100q-43 0 -74 -7
t-51.5 -25t-30 -49.5t-9.5 -80.5v-72h-73v76z" />
    <glyph glyph-name="summation" unicode="&#x2211;" horiz-adv-x="709" 
d="M74 76q0 67 18.5 111t50.5 70.5t75.5 37t93.5 10.5v95h-238v194h71v-128h167v67h-53v192h176v-192h-53v-67h162v128h70v-194h-232v-95q50 0 93.5 -10.5t75.5 -37t50.5 -70.5t18.5 -111v-76h-73v72q0 49 -9.5 80.5t-30 49.5t-51.5 25t-74 7v-100h-70v100q-43 0 -74 -7
t-51.5 -25t-30 -49.5t-9.5 -80.5v-72h-73v76z" />
    <glyph glyph-name="product" unicode="&#x220f;" horiz-adv-x="709" 
d="M74 76q0 67 18.5 111t50.5 70.5t75.5 37t93.5 10.5v95h-238v194h71v-128h167v67h-53v192h176v-192h-53v-67h162v128h70v-194h-232v-95q50 0 93.5 -10.5t75.5 -37t50.5 -70.5t18.5 -111v-76h-73v72q0 49 -9.5 80.5t-30 49.5t-51.5 25t-74 7v-100h-70v100q-43 0 -74 -7
t-51.5 -25t-30 -49.5t-9.5 -80.5v-72h-73v76z" />
    <glyph glyph-name="pi" unicode="&#x3c0;" horiz-adv-x="826" 
d="M464 347q32 0 51 22t19 76q0 27 -5 44.5t-14.5 27.5t-22.5 13.5t-28 3.5h-116v-187h116zM285 590h185q66 0 97 -34.5t31 -110.5q0 -152 -128 -154h-122v-150h-63v449zM413 52q79 0 135 11t92 44t53 94.5t17 163.5t-17 163t-53 94t-92 43.5t-135 10.5t-135.5 -10.5
t-92.5 -43.5t-53 -94t-17 -163t17 -163.5t53 -94.5t92.5 -44t135.5 -11zM413 -12q-94 0 -162 16.5t-112 59t-65.5 115.5t-21.5 185q0 113 21.5 185.5t65.5 115t112 59t162 16.5t162 -16.5t112.5 -59t65.5 -115t21 -185.5q0 -112 -21 -185t-65.5 -115.5t-112.5 -59
t-162 -16.5z" />
    <glyph glyph-name="integral" unicode="&#x222b;" horiz-adv-x="709" 
d="M76 76q0 67 18.5 111t50.5 70.5t75.5 37t93.5 10.5v95h-238v194h71v-128h167v67h-53v192h176v-192h-53v-67h162v128h70v-194h-232v-95q50 0 93.5 -10.5t75.5 -37t50.5 -70.5t18.5 -111v-76h-73v72q0 49 -9.5 80.5t-30 49.5t-51.5 25t-74 7v-100h-70v100q-43 0 -74 -7
t-51.5 -25t-30 -49.5t-9.5 -80.5v-72h-73v76z" />
    <glyph glyph-name="ordfeminine" unicode="&#xaa;" horiz-adv-x="398" 
d="M40 293h317v-66h-317v66zM159 401q23 0 58 11t72 30v81q-76 0 -113.5 -4t-54.5 -14q-13 -8 -15 -21.5t-2 -36.5q0 -29 14 -37.5t41 -8.5zM143 341q-18 0 -37 4.5t-34.5 16.5t-25 33t-9.5 55t6 58t29 39q27 17 77 23.5t138 6.5q0 5 0.5 9t0.5 9q0 23 -2.5 39t-11 26
t-23 14.5t-38.5 4.5q-18 0 -37 -1t-37 -3t-32.5 -4t-23.5 -5l-13 56q25 8 62.5 12.5t75.5 4.5q37 0 65 -5t46.5 -19t28 -38.5t9.5 -63.5v-265l-52 -1l-12 35q-54 -21 -87.5 -31t-62.5 -10z" />
    <glyph glyph-name="ordmasculine" unicode="&#xba;" horiz-adv-x="416" 
d="M50 293h318v-66h-318v66zM210 404q23 0 43 4.5t35 19t23.5 41t8.5 70.5t-9 71t-24 41.5t-35.5 19.5t-43.5 5t-43 -4.5t-35 -18.5t-23.5 -41t-8.5 -71t9 -71t24 -41.5t35.5 -19.5t43.5 -5zM208 341q-86 0 -133.5 46t-47.5 152q0 107 48.5 153.5t134.5 46.5q87 0 134 -45.5
t47 -152.5t-48.5 -153.5t-134.5 -46.5z" />
    <glyph glyph-name="ae" unicode="&#xe6;" horiz-adv-x="791" 
d="M186 58q19 0 42.5 4.5t48 13t47.5 20.5t42 26q-11 43 -13 106q-96 0 -146.5 -6t-72.5 -24q-14 -11 -16.5 -29t-2.5 -41q0 -43 18.5 -56.5t52.5 -13.5zM672 286q0 40 -7 66t-21.5 41.5t-37 21.5t-54.5 6q-24 0 -44.5 -6t-36.5 -21t-26.5 -41t-14.5 -67h242zM166 -7
q-22 0 -44.5 5.5t-40.5 20.5t-29 42.5t-11 70.5q0 37 6.5 64t25.5 44q34 32 103 39.5t177 7.5v19q0 30 -3.5 51.5t-14 35t-30.5 19.5t-52 6q-51 0 -90 -6t-56 -11l-14 64q17 4 56.5 11.5t105.5 7.5q60 0 95.5 -15t52.5 -51q26 36 65 52t87 16q49 0 85 -11.5t60 -37t36 -67.5
t12 -104v-38h-321q1 -55 11 -89t28.5 -53t44.5 -25.5t59 -6.5q18 0 38.5 1t40.5 3.5t37 5.5t29 6l13 -63q-10 -3 -28 -6.5t-39.5 -6t-45.5 -4.5t-47 -2q-66 0 -111 19.5t-71 63.5q-44 -36 -100 -57t-120 -21z" />
    <glyph glyph-name="oslash" unicode="&#xf8;" horiz-adv-x="520" 
d="M192 64q30 -10 69 -10q32 0 59 6.5t47 26t31.5 55.5t11.5 94q0 41 -5.5 70.5t-16.5 50.5zM340 405q-17 8 -37.5 11.5t-43.5 3.5q-31 0 -58 -6.5t-47.5 -26t-32 -55t-11.5 -94.5q0 -48 8 -80.5t22 -53.5zM432 423q26 -30 39.5 -75.5t13.5 -109.5q0 -133 -59 -191.5
t-167 -58.5q-59 0 -105 17l-48 -71h-79l71 106q-31 30 -47 78t-16 118q0 67 15 114.5t44 77.5t71 44t96 14q35 0 64.5 -5.5t53.5 -17.5l45 67h79z" />
    <glyph glyph-name="questiondown" unicode="&#xbf;" horiz-adv-x="515" 
d="M268 0q-68 0 -116 9.5t-78 31t-43.5 56t-13.5 83.5q0 45 9.5 78.5t35.5 60.5t71.5 51.5t116.5 52.5v115h73v-157q-75 -28 -120.5 -48.5t-70.5 -41.5t-33.5 -46t-8.5 -63q0 -31 9 -53t30 -35t55 -19t84 -6q52 0 97.5 5t103.5 17l14 -63q-16 -5 -40 -10t-52.5 -9
t-59.5 -6.5t-63 -2.5zM233 739h111v-110h-111v110z" />
    <glyph glyph-name="exclamdown" unicode="&#xa1;" horiz-adv-x="283" 
d="M114 525h52l21 -525h-94zM86 726h111v-110h-111v110z" />
    <glyph glyph-name="logicalnot" unicode="&#xac;" horiz-adv-x="626" 
d="M336 -11q-59 0 -112.5 11t-94 50t-64 113t-23.5 200t24 200.5t65.5 113.5t97 50.5t118.5 11.5q72 0 127.5 -9t77.5 -17l-16 -65q-12 3 -32 6.5t-45.5 7t-55 6t-58.5 2.5q-57 0 -99.5 -11.5t-70.5 -43t-41.5 -86t-13.5 -140.5v-48q0 -84 14 -138.5t41.5 -87t68.5 -45
t94 -12.5q64 0 99.5 6t57.5 11v215h-146v68h218v-336q-13 -4 -35.5 -9.5t-52.5 -11t-66 -9t-77 -3.5z" />
    <glyph glyph-name="radical" unicode="&#x221a;" horiz-adv-x="640" 
d="M68 375h76l131 -303l253 654h77l-289 -730h-84z" />
    <glyph glyph-name="florin" unicode="&#x192;" horiz-adv-x="403" 
d="M122 359h-81v66h91l23 133q7 41 15.5 67t27.5 43.5t53.5 30.5t92.5 26l14 -65q-45 -10 -69.5 -18.5t-37 -20.5t-17.5 -30t-10 -47l-20 -119h109v-66h-119l-81 -479h-73z" />
    <glyph glyph-name="approxequal" unicode="&#x2248;" horiz-adv-x="709" 
d="M74 76q0 67 18.5 111t50.5 70.5t75.5 37t93.5 10.5v95h-238v194h71v-128h167v67h-53v192h176v-192h-53v-67h162v128h70v-194h-232v-95q50 0 93.5 -10.5t75.5 -37t50.5 -70.5t18.5 -111v-76h-73v72q0 49 -9.5 80.5t-30 49.5t-51.5 25t-74 7v-100h-70v100q-43 0 -74 -7
t-51.5 -25t-30 -49.5t-9.5 -80.5v-72h-73v76z" />
    <glyph glyph-name="Delta" unicode="&#x394;" horiz-adv-x="577" 
d="M299 -133q46 10 73 18.5t40.5 20t17 28t3.5 42.5v423h-251v-399h-73v399h-83v66h83v101q0 39 11.5 67.5t44 50t91.5 36.5t154 27l8 -69q-81 -11 -128 -21.5t-71 -23.5t-30.5 -30t-6.5 -41v-97h324v-493q0 -38 -7 -64.5t-27.5 -46t-58.5 -33.5t-100 -27z" />
    <glyph glyph-name="Delta" unicode="&#x2206;" horiz-adv-x="577" 
d="M299 -133q46 10 73 18.5t40.5 20t17 28t3.5 42.5v423h-251v-399h-73v399h-83v66h83v101q0 39 11.5 67.5t44 50t91.5 36.5t154 27l8 -69q-81 -11 -128 -21.5t-71 -23.5t-30.5 -30t-6.5 -41v-97h324v-493q0 -38 -7 -64.5t-27.5 -46t-58.5 -33.5t-100 -27z" />
    <glyph glyph-name="guillemotleft" unicode="&#xab;" horiz-adv-x="498" 
d="M50 229l120 206h71l-110 -206l110 -204h-71zM242 229l120 206h71l-110 -206l110 -204h-71z" />
    <glyph glyph-name="guillemotright" unicode="&#xbb;" horiz-adv-x="498" 
d="M175 231l-110 204h71l120 -204l-120 -206h-71zM367 231l-110 204h71l120 -204l-120 -206h-71z" />
    <glyph glyph-name="ellipsis" unicode="&#x2026;" horiz-adv-x="765" 
d="M64 116h116v-116h-116v116zM325 116h117v-116h-117v116zM586 116h117v-116h-117v116z" />
    <glyph glyph-name="nonbreakingspace" unicode="&#xa0;" horiz-adv-x="123" 
 />
    <glyph glyph-name="Agrave" unicode="&#xc0;" horiz-adv-x="661" 
d="M174 946h126l86 -170h-46zM329 624l-145 -381h290zM91 0h-72l279 731h65l279 -731h-75l-67 176h-342z" />
    <glyph glyph-name="Atilde" unicode="&#xc3;" horiz-adv-x="661" 
d="M163 822l39.5 32t29 20.5t24 11t24.5 3.5q14 0 28.5 -7t28.5 -16l25.5 -16t17.5 -7q11 0 26.5 12.5l47.5 38.5l43 -50q-24 -19 -39.5 -32.5t-28 -21t-24 -11t-26.5 -3.5q-13 0 -28 7t-28.5 16l-25 16t-18.5 7q-11 0 -26 -12l-47 -38zM329 624l-145 -381h290zM91 0h-72
l279 731h65l279 -731h-75l-67 176h-342z" />
    <glyph glyph-name="Otilde" unicode="&#xd5;" horiz-adv-x="694" 
d="M180 822l39.5 32t29 20.5t24 11t24.5 3.5q14 0 28.5 -7t28.5 -16l25.5 -16t17.5 -7q11 0 26.5 12.5l47.5 38.5l43 -50q-24 -19 -39.5 -32.5t-28 -21t-24 -11t-26.5 -3.5q-13 0 -28 7t-28.5 16l-25 16t-18.5 7q-11 0 -26 -12l-47 -38zM348 58q50 0 91.5 11.5t71.5 42
t46.5 85.5t16.5 142v48q0 87 -17 142t-47.5 86.5t-72 43t-91.5 11.5q-49 0 -90.5 -11.5t-71.5 -42t-47 -85.5t-17 -142v-48q0 -87 17 -142t47.5 -86.5t72.5 -43t91 -11.5zM346 -11q-63 0 -118.5 15t-97 56.5t-65 114.5t-23.5 188q0 116 24 189t65.5 114.5t97.5 57t119 15.5
t118.5 -15t97 -56.5t65 -114t23.5 -188.5q0 -115 -24 -188.5t-65.5 -115t-97.5 -57t-119 -15.5z" />
    <glyph glyph-name="OE" unicode="&#x152;" horiz-adv-x="968" 
d="M500 67v592h-163q-49 0 -89.5 -11.5t-69 -41.5t-44.5 -83t-16 -136v-48q0 -83 16 -136t44.5 -83t69 -41.5t89.5 -11.5h163zM336 0q-69 0 -123.5 15t-93 55.5t-59 111t-20.5 181.5t20.5 181.5t59 111t93 55.5t123.5 15h590v-68h-353v-240h270v-68h-270v-282h353v-68h-590z
" />
    <glyph glyph-name="oe" unicode="&#x153;" horiz-adv-x="853" 
d="M261 54q32 0 59 6.5t47 26t31.5 55.5t11.5 94q0 59 -12 95t-32 55.5t-47.5 26.5t-59.5 7q-31 0 -58 -6.5t-47.5 -26t-32 -55t-11.5 -94.5q0 -58 12 -94.5t32.5 -56t48 -26.5t58.5 -7zM729 286q0 40 -7 66t-21.5 41.5t-37 21.5t-54.5 6q-24 0 -44.5 -6t-36.5 -21
t-26.5 -41t-14.5 -67h242zM259 -12q-54 0 -95.5 13.5t-70 43.5t-43.5 77t-15 114t15 114.5t44 77.5t71 44t96 14q69 0 115 -22t71 -73q24 51 66 73t99 22q49 0 85 -11.5t60 -37t36 -67.5t12 -104v-38h-321q1 -55 11 -89t28.5 -53t44.5 -25.5t59 -6.5q18 0 38.5 1t40.5 3.5
t37 5.5t29 6l13 -63q-10 -3 -28 -6.5t-39.5 -6t-45.5 -4.5t-47 -2q-69 0 -113 22t-67 72q-25 -49 -71 -71.5t-115 -22.5z" />
    <glyph glyph-name="endash" unicode="&#x2013;" horiz-adv-x="554" 
d="M60 304h434v-72h-434v72z" />
    <glyph glyph-name="emdash" unicode="&#x2014;" horiz-adv-x="829" 
d="M60 304h709v-72h-709v72z" />
    <glyph glyph-name="quotedblleft" unicode="&#x201c;" horiz-adv-x="466" 
d="M192 747l35 -21l-50 -219h-118zM374 747l35 -21l-50 -219h-118z" />
    <glyph glyph-name="quotedblright" unicode="&#x201d;" horiz-adv-x="466" 
d="M57 507l50 219h118l-133 -240zM239 507l50 219h118l-133 -240z" />
    <glyph glyph-name="quoteleft" unicode="&#x2018;" horiz-adv-x="284" 
d="M192 747l35 -21l-50 -219h-118z" />
    <glyph glyph-name="quoteright" unicode="&#x2019;" horiz-adv-x="284" 
d="M57 507l50 219h118l-133 -240z" />
    <glyph glyph-name="divide" unicode="&#xf7;" horiz-adv-x="507" 
d="M201 225h105v-105h-105v105zM60 365h387v-65h-387v65zM201 544h105v-104h-105v104z" />
    <glyph glyph-name="lozenge" unicode="&#x25ca;" horiz-adv-x="682" 
d="M534 -5q-98 0 -98 129v275h-254v-399h-73v399h-83v66h83v112q0 38 7 64.5t27.5 46t58.5 33.5t100 27l14 -66q-46 -10 -73 -19t-40.5 -20.5t-17 -28t-3.5 -41.5v-108h254v164l72 20v-184h126v-66h-126v-265q0 -43 9.5 -56.5t28.5 -13.5q17 0 35.5 1t51.5 6l6 -68
q-40 -5 -62.5 -6.5t-42.5 -1.5z" />
    <glyph glyph-name="ydieresis" unicode="&#xff;" horiz-adv-x="473" 
d="M88 652h104v-106h-104v106zM279 652h105v-106h-105v106zM19 465h79l73 -186l26.5 -68.5l23 -59.5t16.5 -42.5l6 -16.5l141 373h70l-254 -665h-73l39 102q8 19 15 37.5l12 32.5t8.5 22.5l3.5 8.5z" />
    <glyph glyph-name="Ydieresis" unicode="&#x178;" horiz-adv-x="652" 
d="M178 892h104v-106h-104v106zM369 892h105v-106h-105v106zM289 295l-270 431h81l228 -364l229 364h76l-271 -431v-295h-73v295z" />
    <glyph glyph-name="fraction" unicode="&#x2044;" horiz-adv-x="316" 
d="M252 726h64l-252 -726h-64z" />
    <glyph glyph-name="fraction" unicode="&#x2215;" horiz-adv-x="316" 
d="M252 726h64l-252 -726h-64z" />
    <glyph glyph-name="guilsinglleft" unicode="&#x2039;" horiz-adv-x="308" 
d="M50 229l120 206h73l-110 -206l110 -204h-73z" />
    <glyph glyph-name="guilsinglright" unicode="&#x203a;" horiz-adv-x="308" 
d="M175 231l-110 204h73l120 -204l-120 -206h-73z" />
    <glyph glyph-name="daggerdbl" unicode="&#x2021;" horiz-adv-x="456" 
d="M194 113h-167v66h167v268h-167v66h167v233h70v-233h167v-66h-167v-268h167v-66h-167v-233h-70v233z" />
    <glyph glyph-name="periodcentered" unicode="&#xb7;" horiz-adv-x="237" 
d="M64 419h111v-110h-111v110z" />
    <glyph glyph-name="periodcentered" unicode="&#x2219;" horiz-adv-x="237" 
d="M64 419h111v-110h-111v110z" />
    <glyph glyph-name="quotesinglbase" unicode="&#x201a;" horiz-adv-x="284" 
d="M57 -81l50 219h118l-133 -240z" />
    <glyph glyph-name="quotedblbase" unicode="&#x201e;" horiz-adv-x="466" 
d="M57 -81l50 219h118l-133 -240zM239 -81l50 219h118l-133 -240z" />
    <glyph glyph-name="perthousand" unicode="&#x2030;" horiz-adv-x="1220" 
d="M658 51q23 0 40.5 7t29.5 23t18 42.5t6 65.5v52q0 79 -24.5 109.5t-71.5 30.5q-23 0 -40.5 -7t-29.5 -23t-18 -42.5t-6 -65.5v-52q0 -79 25 -109.5t71 -30.5zM656 -11q-38 0 -68.5 10t-51.5 35.5t-32.5 69.5t-11.5 111q0 68 11.5 112t33.5 69.5t52.5 36t68.5 10.5
t68.5 -10t52 -35.5t33 -69t11.5 -111.5q0 -67 -11.5 -111.5t-33.5 -70t-53 -36t-69 -10.5zM1038 51q23 0 40.5 7t29.5 23t18 42.5t6 65.5v52q0 79 -24.5 109.5t-71.5 30.5q-23 0 -40.5 -7t-29.5 -23t-18 -42.5t-6 -65.5v-52q0 -79 25 -109.5t71 -30.5zM1036 -11
q-38 0 -68.5 10t-51.5 35.5t-32.5 69.5t-11.5 111q0 68 11.5 112t33.5 69.5t52.5 36t68.5 10.5t68.5 -10t52 -35.5t33 -69t11.5 -111.5q0 -67 -11.5 -111.5t-33.5 -70t-53 -36t-69 -10.5zM514 726h64l-252 -726h-64zM185 347q23 0 40.5 7t29.5 23t18 42.5t6 65.5v52
q0 79 -24.5 109.5t-71.5 30.5q-23 0 -40.5 -7t-29.5 -23t-18 -42.5t-6 -65.5v-52q0 -79 24.5 -109.5t71.5 -30.5zM183 285q-38 0 -68.5 10t-51.5 35.5t-32.5 69.5t-11.5 111q0 68 11.5 112t33.5 69.5t52.5 36t68.5 10.5t68.5 -10t52 -35.5t33 -69t11.5 -111.5
q0 -67 -11.5 -111.5t-33.5 -70t-53 -36t-69 -10.5z" />
    <glyph glyph-name="Acircumflex" unicode="&#xc2;" horiz-adv-x="661" 
d="M296 912h69l123 -156h-53l-105 85l-104 -85h-53zM329 624l-145 -381h290zM91 0h-72l279 731h65l279 -731h-75l-67 176h-342z" />
    <glyph glyph-name="Ecircumflex" unicode="&#xca;" horiz-adv-x="544" 
d="M238 932h69l123 -156h-53l-105 85l-104 -85h-53zM76 726h426v-68h-353v-240h270v-68h-270v-282h353v-68h-426v726z" />
    <glyph glyph-name="Aacute" unicode="&#xc1;" horiz-adv-x="661" 
d="M361 946h126l-166 -170h-46zM329 624l-145 -381h290zM91 0h-72l279 731h65l279 -731h-75l-67 176h-342z" />
    <glyph glyph-name="Edieresis" unicode="&#xcb;" horiz-adv-x="544" 
d="M124 892h104v-106h-104v106zM315 892h105v-106h-105v106zM76 726h426v-68h-353v-240h270v-68h-270v-282h353v-68h-426v726z" />
    <glyph glyph-name="Egrave" unicode="&#xc8;" horiz-adv-x="544" 
d="M116 946h126l86 -170h-46zM76 726h426v-68h-353v-240h270v-68h-270v-282h353v-68h-426v726z" />
    <glyph glyph-name="Iacute" unicode="&#xcd;" 
d="M182 946h126l-166 -170h-46zM85 726h74v-726h-74v726z" />
    <glyph glyph-name="Icircumflex" unicode="&#xce;" 
d="M87 932h69l123 -156h-53l-105 85l-104 -85h-53zM85 726h74v-726h-74v726z" />
    <glyph glyph-name="Idieresis" unicode="&#xcf;" 
d="M-27 892h104v-106h-104v106zM164 892h105v-106h-105v106zM85 726h74v-726h-74v726z" />
    <glyph glyph-name="Igrave" unicode="&#xcc;" 
d="M-65 946h126l86 -170h-46zM85 726h74v-726h-74v726z" />
    <glyph glyph-name="Oacute" unicode="&#xd3;" horiz-adv-x="694" 
d="M378 946h126l-166 -170h-46zM348 58q50 0 91.5 11.5t71.5 42t46.5 85.5t16.5 142v48q0 87 -17 142t-47.5 86.5t-72 43t-91.5 11.5q-49 0 -90.5 -11.5t-71.5 -42t-47 -85.5t-17 -142v-48q0 -87 17 -142t47.5 -86.5t72.5 -43t91 -11.5zM346 -11q-63 0 -118.5 15t-97 56.5
t-65 114.5t-23.5 188q0 116 24 189t65.5 114.5t97.5 57t119 15.5t118.5 -15t97 -56.5t65 -114t23.5 -188.5q0 -115 -24 -188.5t-65.5 -115t-97.5 -57t-119 -15.5z" />
    <glyph glyph-name="Ocircumflex" unicode="&#xd4;" horiz-adv-x="694" 
d="M313 932h69l123 -156h-53l-105 85l-104 -85h-53zM348 58q50 0 91.5 11.5t71.5 42t46.5 85.5t16.5 142v48q0 87 -17 142t-47.5 86.5t-72 43t-91.5 11.5q-49 0 -90.5 -11.5t-71.5 -42t-47 -85.5t-17 -142v-48q0 -87 17 -142t47.5 -86.5t72.5 -43t91 -11.5zM346 -11
q-63 0 -118.5 15t-97 56.5t-65 114.5t-23.5 188q0 116 24 189t65.5 114.5t97.5 57t119 15.5t118.5 -15t97 -56.5t65 -114t23.5 -188.5q0 -115 -24 -188.5t-65.5 -115t-97.5 -57t-119 -15.5z" />
    <glyph glyph-name="Ograve" unicode="&#xd2;" horiz-adv-x="694" 
d="M191 946h126l86 -170h-46zM348 58q50 0 91.5 11.5t71.5 42t46.5 85.5t16.5 142v48q0 87 -17 142t-47.5 86.5t-72 43t-91.5 11.5q-49 0 -90.5 -11.5t-71.5 -42t-47 -85.5t-17 -142v-48q0 -87 17 -142t47.5 -86.5t72.5 -43t91 -11.5zM346 -11q-63 0 -118.5 15t-97 56.5
t-65 114.5t-23.5 188q0 116 24 189t65.5 114.5t97.5 57t119 15.5t118.5 -15t97 -56.5t65 -114t23.5 -188.5q0 -115 -24 -188.5t-65.5 -115t-97.5 -57t-119 -15.5z" />
    <glyph glyph-name="Uacute" unicode="&#xda;" horiz-adv-x="687" 
d="M374 946h126l-166 -170h-46zM344 -10q-67 0 -119 11t-87.5 41t-53.5 82t-18 134v468h74v-460q0 -59 10.5 -98.5t34.5 -63t63.5 -33.5t97.5 -10t97.5 9t63.5 32t34 62t10 100v462h71v-466q0 -81 -18 -133.5t-53 -82.5t-87 -42t-120 -12z" />
    <glyph glyph-name="Ucircumflex" unicode="&#xdb;" horiz-adv-x="687" 
d="M309 932h69l123 -156h-53l-105 85l-104 -85h-53zM344 -10q-67 0 -119 11t-87.5 41t-53.5 82t-18 134v468h74v-460q0 -59 10.5 -98.5t34.5 -63t63.5 -33.5t97.5 -10t97.5 9t63.5 32t34 62t10 100v462h71v-466q0 -81 -18 -133.5t-53 -82.5t-87 -42t-120 -12z" />
    <glyph glyph-name="Ugrave" unicode="&#xd9;" horiz-adv-x="687" 
d="M187 946h126l86 -170h-46zM344 -10q-67 0 -119 11t-87.5 41t-53.5 82t-18 134v468h74v-460q0 -59 10.5 -98.5t34.5 -63t63.5 -33.5t97.5 -10t97.5 9t63.5 32t34 62t10 100v462h71v-466q0 -81 -18 -133.5t-53 -82.5t-87 -42t-120 -12z" />
    <glyph glyph-name="dotlessi" unicode="&#x131;" horiz-adv-x="215" 
d="M71 465h73v-465h-73v465z" />
    <glyph glyph-name="circumflex" unicode="&#x2c6;" horiz-adv-x="455" 
d="M193 692h69l123 -156h-53l-105 85l-104 -85h-53z" />
    <glyph glyph-name="tilde" unicode="&#x2dc;" horiz-adv-x="450" 
d="M58 582l39.5 32t29 20.5t24 11t24.5 3.5q14 0 28.5 -7t28.5 -16l25.5 -16t17.5 -7q11 0 26.5 12.5l47.5 38.5l43 -50q-24 -19 -39.5 -32.5t-28 -21t-24 -11t-26.5 -3.5q-13 0 -28 7t-28.5 16l-25 16t-18.5 7q-11 0 -26 -12l-47 -38z" />
    <glyph glyph-name="macron" unicode="&#xaf;" horiz-adv-x="456" 
d="M100 613h258v-77h-258v77z" />
    <glyph glyph-name="macron" unicode="&#x2c9;" horiz-adv-x="456" 
d="M100 613h258v-77h-258v77z" />
    <glyph glyph-name="breve" unicode="&#x2d8;" horiz-adv-x="456" 
d="M230 527q-19 0 -40.5 2.5t-41.5 7t-37.5 11.5t-28.5 16v101h77v-61q11 -5 31 -7.5t40 -2.5t42.5 2.5t33.5 7.5v61h77v-102q-12 -9 -30 -15.5t-39 -11t-42.5 -7t-41.5 -2.5z" />
    <glyph glyph-name="dotaccent" unicode="&#x2d9;" horiz-adv-x="456" 
d="M169 656h121v-120h-121v120z" />
    <glyph glyph-name="ring" unicode="&#x2da;" horiz-adv-x="456" 
d="M229 577q32 0 39.5 12.5t7.5 38.5t-7.5 39.5t-39.5 13.5t-39.5 -13.5t-7.5 -39.5t7.5 -38.5t39.5 -12.5zM229 528q-55 0 -75.5 25.5t-20.5 74.5t20.5 75t75.5 26t75.5 -26t20.5 -75t-21 -74.5t-75 -25.5z" />
    <glyph glyph-name="cedilla" unicode="&#xb8;" horiz-adv-x="500" 
d="M168 -123q31 5 51 12t31 13l-18 100l69 13l29 -147q-19 -19 -55.5 -36.5t-93.5 -25.5z" />
    <glyph glyph-name="hungarumlaut" unicode="&#x2dd;" horiz-adv-x="448" 
d="M124 706h116l-156 -170h-46zM294 706h116l-156 -170h-46z" />
    <glyph glyph-name="ogonek" unicode="&#x2db;" horiz-adv-x="500" 
d="M318 -194q-57 8 -93.5 25.5t-55.5 36.5l29 147l69 -13l-18 -100q11 -6 31 -13t51 -12z" />
    <glyph glyph-name="caron" unicode="&#x2c7;" horiz-adv-x="455" 
d="M70 692h53l105 -85l104 85h53l-123 -156h-69z" />
    <glyph glyph-name="lslash" unicode="&#x142;" horiz-adv-x="316" 
d="M123 321q0 1 -15 -5l-33 -13l-49 -18v66l49 18l33 13t15 5v359h72v-331l96 36v-66l-96 -36v-349h-72v321z" />
    <glyph glyph-name="Scaron" unicode="&#x160;" horiz-adv-x="583" 
d="M134 932h53l105 -85l104 85h53l-123 -156h-69zM274 -5q-31 0 -65 3t-64.5 8t-55.5 11t-39 11l13 66q15 -4 39 -9t53 -9.5t60.5 -8t59.5 -3.5q45 0 78 5t55 19t32.5 40t10.5 68q0 36 -7 58t-25 36t-49 23.5t-79 20.5q-68 16 -112.5 32t-71 38.5t-37.5 56.5t-11 86
q0 99 61.5 143t177.5 44q35 0 67.5 -2.5t59.5 -6.5t46.5 -7.5t28.5 -6.5l-13 -66q-9 2 -29 5.5t-46.5 6.5t-56.5 5.5t-59 2.5q-79 0 -119.5 -24t-40.5 -92q0 -36 7.5 -59t27 -38t52.5 -25t83 -22q52 -12 93.5 -25t70 -35t44 -56.5t15.5 -90.5q0 -60 -17.5 -99.5t-50 -62.5
t-80 -32t-107.5 -9z" />
    <glyph glyph-name="scaron" unicode="&#x161;" horiz-adv-x="464" 
d="M75 692h53l105 -85l104 85h53l-123 -156h-69zM221 -10q-23 0 -48.5 2.5t-49 6t-43.5 8.5t-32 9l13 63q9 -3 27.5 -7t41 -8t46.5 -6.5t45 -2.5q39 0 63.5 3.5t38.5 13t19.5 25.5t5.5 40q0 17 -5 28.5t-16.5 19t-31 12t-48.5 8.5q-55 8 -91.5 15.5t-58.5 22t-31 38.5t-9 64
q0 75 46 105.5t140 30.5q25 0 50.5 -1.5t47 -4t38 -5.5t24.5 -5l-13 -63q-9 2 -26.5 4.5t-38.5 4.5t-43.5 3.5t-40.5 1.5q-64 0 -87 -15.5t-23 -53.5q0 -20 4.5 -32t18.5 -19.5t39 -12t65 -9.5q47 -6 78.5 -15t51 -24t27.5 -38.5t8 -57.5q0 -47 -13 -76.5t-38.5 -45.5
t-63 -21.5t-87.5 -5.5z" />
    <glyph glyph-name="Yacute" unicode="&#xdd;" horiz-adv-x="652" 
d="M357 946h126l-166 -170h-46zM289 295l-270 431h81l228 -364l229 364h76l-271 -431v-295h-73v295z" />
    <glyph glyph-name="yacute" unicode="&#xfd;" horiz-adv-x="473" 
d="M267 706h126l-166 -170h-46zM19 465h79l73 -186l26.5 -68.5l23 -59.5t16.5 -42.5l6 -16.5l141 373h70l-254 -665h-73l39 102q8 19 15 37.5l12 32.5t8.5 22.5l3.5 8.5z" />
    <glyph glyph-name="Thorn" unicode="&#xde;" horiz-adv-x="599" 
d="M363 226q27 0 51 4t42 19t28.5 43.5t10.5 77.5t-11 78t-29.5 44t-42.5 19.5t-51 4.5h-212v-290h214zM76 726h73v-145h214q51 0 89.5 -10.5t64 -35.5t38.5 -64.5t13 -98.5q0 -58 -13 -98.5t-39 -65.5t-65 -36t-90 -11h-212v-161h-73v726z" />
    <glyph glyph-name="thorn" unicode="&#xfe;" horiz-adv-x="531" 
d="M310 59q27 0 46 7t31.5 26t18 53t5.5 88t-5.5 88.5t-17.5 54t-31 26.5t-46 7q-22 0 -46.5 -5.5t-48.5 -13t-44 -16.5t-33 -17v-258q11 -5 30.5 -12t43.5 -13t49.5 -10.5t47.5 -4.5zM66 746h73v-326q9 5 29 14.5t46 18.5t57 16t62 7q26 0 53 -5.5t49.5 -29.5t36.5 -72
t14 -134q0 -85 -15 -134t-38 -73t-50.5 -30t-53.5 -6q-30 0 -60 5t-55.5 12t-45 14.5l-29.5 11.5v-235h-73v946z" />
    <glyph glyph-name="Zcaron" unicode="&#x17d;" horiz-adv-x="577" 
d="M131 932h53l105 -85l104 85h53l-123 -156h-69zM29 57l418 601h-409v68h497v-63l-414 -595h419v-68h-511v57z" />
    <glyph glyph-name="zcaron" unicode="&#x17e;" horiz-adv-x="432" 
d="M59 692h53l105 -85l104 85h53l-123 -156h-69zM26 55l281 347h-268v63h355v-55l-279 -347h292v-63h-381v55z" />
    <glyph glyph-name="onehalf" unicode="&#xbd;" horiz-adv-x="869" 
d="M480 53l117 120l59 59.5t31.5 37.5t13 31t2.5 41q0 34 -18 47t-68 13q-31 0 -63 -5t-60 -11l-13 61q29 8 66.5 14t70.5 6q86 0 120.5 -30t34.5 -94q0 -35 -5.5 -57.5t-19 -43t-37 -44.5l-60.5 -62l-70 -72h207v-64h-308v53zM474 726h64l-282 -726h-64zM148 661h-83v65
h151v-460h-68v395z" />
    <glyph glyph-name="onequarter" unicode="&#xbc;" horiz-adv-x="808" 
d="M638 106h-220v62l175 294h74l-174 -291h145v132h69v-132h53v-65h-53v-106h-69v106zM474 726h64l-282 -726h-64zM148 661h-83v65h151v-460h-68v395z" />
    <glyph glyph-name="onesuperior" unicode="&#xb9;" horiz-adv-x="311" 
d="M148 661h-83v65h151v-460h-68v395z" />
    <glyph glyph-name="threequarters" unicode="&#xbe;" horiz-adv-x="893" 
d="M723 106h-220v62l175 294h74l-174 -291h145v132h69v-132h53v-65h-53v-106h-69v106zM559 726h64l-282 -726h-64zM65 324q87 4 135.5 11t69.5 20q14 8 17 26.5t3 38.5t-3 37.5t-16 25.5q-21 13 -52.5 17.5t-61.5 6.5v53l94 102h-199v64h286v-57l-102 -109l35.5 -8.5
t32.5 -12.5q30 -17 43 -45.5t13 -71.5q0 -44 -12.5 -74t-41.5 -47t-87.5 -28t-149.5 -13z" />
    <glyph glyph-name="threesuperior" unicode="&#xb3;" horiz-adv-x="422" 
d="M65 324q87 4 135.5 11t69.5 20q14 8 17 26.5t3 38.5t-3 37.5t-16 25.5q-21 13 -52.5 17.5t-61.5 6.5v53l94 102h-199v64h286v-57l-102 -109l35.5 -8.5t32.5 -12.5q30 -17 43 -45.5t13 -71.5q0 -44 -12.5 -74t-41.5 -47t-87.5 -28t-149.5 -13z" />
    <glyph glyph-name="twosuperior" unicode="&#xb2;" horiz-adv-x="418" 
d="M52 318l117 120l59 59.5t31.5 37.5t13 31t2.5 41q0 34 -18 47t-68 13q-31 0 -63 -5t-60 -11l-13 61q29 8 66.5 14t70.5 6q86 0 120.5 -30t34.5 -94q0 -35 -5.5 -57.5t-19 -43t-37 -44.5l-60.5 -62l-70 -72h207v-64h-308v53z" />
    <glyph glyph-name="brokenbar" unicode="&#xa6;" horiz-adv-x="309" 
d="M125 226h59v-426h-59v426zM125 790h59v-426h-59v426z" />
    <glyph glyph-name="minus" unicode="&#x2212;" horiz-adv-x="507" 
d="M60 365h387v-65h-387v65z" />
    <glyph glyph-name="multiply" unicode="&#xd7;" horiz-adv-x="503" 
d="M79 205l127 127l-127 127l46 46l127 -127l126 127l46 -46l-126 -127l126 -127l-46 -46l-126 127l-127 -127z" />
    <glyph glyph-name="Lslash" unicode="&#x141;" horiz-adv-x="598" 
d="M26 285v66l80 28v347h74v-321l131 46v-66l-131 -46v-273h396v-66h-470v313z" />
    <glyph glyph-name="Omega" unicode="&#x3a9;" horiz-adv-x="709" 
d="M74 76q0 67 18.5 111t50.5 70.5t75.5 37t93.5 10.5v95h-238v194h71v-128h167v67h-53v192h176v-192h-53v-67h162v128h70v-194h-232v-95q50 0 93.5 -10.5t75.5 -37t50.5 -70.5t18.5 -111v-76h-73v72q0 49 -9.5 80.5t-30 49.5t-51.5 25t-74 7v-100h-70v100q-43 0 -74 -7
t-51.5 -25t-30 -49.5t-9.5 -80.5v-72h-73v76z" />
    <glyph glyph-name="Omega" unicode="&#x2126;" horiz-adv-x="709" 
d="M74 76q0 67 18.5 111t50.5 70.5t75.5 37t93.5 10.5v95h-238v194h71v-128h167v67h-53v192h176v-192h-53v-67h162v128h70v-194h-232v-95q50 0 93.5 -10.5t75.5 -37t50.5 -70.5t18.5 -111v-76h-73v72q0 49 -9.5 80.5t-30 49.5t-51.5 25t-74 7v-100h-70v100q-43 0 -74 -7
t-51.5 -25t-30 -49.5t-9.5 -80.5v-72h-73v76z" />
    <glyph glyph-name="currency" unicode="&#xa4;" horiz-adv-x="608" 
d="M370 -11q-45 0 -85 11t-72 38.5t-54 75.5t-32 123h-107v66h100q0 27 -1 56.5t1 58.5h-100v66h106q10 77 32.5 126t55 78t73 40t85.5 11q69 0 120.5 -10t73.5 -18l-15 -63q-33 8 -76 15t-105 7q-72 0 -115 -42t-54 -144h233v-66h-238v-115h238v-66h-231
q13 -96 54.5 -137.5t114.5 -41.5q77 0 120 8.5t59 13.5l15 -63q-15 -5 -66 -16.5t-130 -11.5z" />
    <glyph glyph-name="apple" horiz-adv-x="709" 
d="M85 76q0 67 18.5 111t50.5 70.5t75.5 37t93.5 10.5v95h-238v194h71v-128h167v67h-53v192h176v-192h-53v-67h162v128h70v-194h-232v-95q50 0 93.5 -10.5t75.5 -37t50.5 -70.5t18.5 -111v-76h-73v72q0 49 -9.5 80.5t-30 49.5t-51.5 25t-74 7v-100h-70v100q-43 0 -74 -7
t-51.5 -25t-30 -49.5t-9.5 -80.5v-72h-73v76z" />
    <glyph glyph-name="Eth" unicode="&#xd0;" horiz-adv-x="691" 
d="M311 411v-66h-122v-281h168q50 0 89.5 12t67 42.5t42.5 84t15 136.5v48q0 83 -15 136.5t-42.5 84.5t-67 42.5t-89.5 11.5h-168v-251h122zM26 345v66h90v315h242q68 0 122 -15t91.5 -55.5t57.5 -111t20 -181.5t-20 -181.5t-57.5 -111t-91.5 -55.5t-122 -15h-95.5t-76.5 -1
q-38 -1 -70 -1v347h-90z" />
    <glyph glyph-name="eth" unicode="&#xf0;" horiz-adv-x="530" 
d="M268 55q54 0 84.5 16t45 48.5t18 82t3.5 117.5v19.5t-1 18.5q-19 11 -43 20.5t-48 16.5t-47 11t-41 4q-33 0 -55.5 -5.5t-37 -23t-21 -50.5t-6.5 -87q0 -55 10 -91.5t28.5 -58t46.5 -30t64 -8.5zM295 552v67h84q-8 26 -16.5 51t-19.5 53l68 23q5 -10 17.5 -42t26.5 -85
h84v-67h-70q10 -49 16 -107t6 -126q0 -80 -6 -141.5t-29 -103.5t-68 -64t-123 -22q-36 0 -75 7.5t-71 33.5t-53 76.5t-21 135.5q0 86 16 133t40.5 70t55.5 27.5t61 4.5q48 0 101.5 -13t94.5 -35q-8 71 -19 124h-100z" />
    </font>
</defs>
</svg>
